<svg width="18" height="22" viewBox="0 0 18 22" fill="none" xmlns="http://www.w3.org/2000/svg">
<path fill-rule="evenodd" clip-rule="evenodd" d="M9 1.4403C6.73302 1.4403 4.89892 3.22756 4.89892 5.42786C4.89892 7.62816 6.73302 9.41542 9 9.41542C11.267 9.41542 13.1011 7.62816 13.1011 5.42786C13.1011 3.22756 11.267 1.4403 9 1.4403ZM3.93666 5.42786C3.93666 2.70431 6.20562 0.5 9 0.5C11.7944 0.5 14.0633 2.70431 14.0633 5.42786C14.0633 8.15141 11.7944 10.3557 9 10.3557C6.20562 10.3557 3.93666 8.15142 3.93666 5.42786ZM1.47752 20.5597H16.5225C16.2733 16.7318 13.0025 13.699 9 13.699C4.99754 13.699 1.72672 16.7318 1.47752 20.5597ZM0.5 21.0299C0.5 16.4599 4.3076 12.7587 9 12.7587C13.6924 12.7587 17.5 16.4599 17.5 21.0299C17.5 21.2895 17.2846 21.5 17.0189 21.5H0.981132C0.71541 21.5 0.5 21.2895 0.5 21.0299Z" fill="black"/>
</svg>
