<svg width="30" height="34" viewBox="0 0 30 34" fill="none" xmlns="http://www.w3.org/2000/svg">
<path d="M20.0625 25.8889H28.5L26.1292 23.3912C25.4862 22.7139 25.125 21.7952 25.125 20.8372V15.2222C25.125 10.5779 22.3075 6.62682 18.375 5.16252V4.55556C18.375 2.59188 16.864 1 15 1C13.136 1 11.625 2.59188 11.625 4.55556V5.16252C7.69248 6.62682 4.875 10.5779 4.875 15.2222V20.8372C4.875 21.7952 4.51379 22.7139 3.87082 23.3912L1.5 25.8889H9.9375M20.0625 25.8889V27.6667C20.0625 30.6122 17.7959 33 15 33C12.2041 33 9.9375 30.6122 9.9375 27.6667V25.8889M20.0625 25.8889H9.9375" stroke="black" stroke-width="1.3" stroke-linecap="round" stroke-linejoin="round"/>
</svg>
