<svg width="18" height="23" viewBox="0 0 18 23" fill="none" xmlns="http://www.w3.org/2000/svg">
<path d="M5.57143 3.33333H3.28571C2.02335 3.33333 1 4.378 1 5.66667V19.6667C1 20.9553 2.02335 22 3.28571 22H14.7143C15.9767 22 17 20.9553 17 19.6667V5.66667C17 4.378 15.9767 3.33333 14.7143 3.33333H12.4286M5.57143 3.33333C5.57143 4.622 6.59478 5.66667 7.85714 5.66667H10.1429C11.4052 5.66667 12.4286 4.622 12.4286 3.33333M5.57143 3.33333C5.57143 2.04467 6.59478 1 7.85714 1H10.1429C11.4052 1 12.4286 2.04467 12.4286 3.33333" stroke="black" stroke-width="1.3" stroke-linecap="round"/>
</svg>
