<svg width="37" height="29" viewBox="0 0 37 29" fill="none" xmlns="http://www.w3.org/2000/svg">
<path fill-rule="evenodd" clip-rule="evenodd" d="M14.2305 0.0833283H14.1798C11.4146 0.0833204 9.27231 0.0833147 7.58805 0.2824C5.87696 0.484657 4.54127 0.901279 3.44049 1.80467C3.05651 2.11979 2.70443 2.47187 2.38931 2.85585C1.53815 3.89298 1.11906 5.13868 0.904244 6.71097C0.848174 7.12137 1.13542 7.49952 1.54582 7.55559C1.95622 7.61166 2.33437 7.32442 2.39044 6.91402C2.58438 5.49447 2.93826 4.55141 3.54882 3.80744C3.80161 3.49941 4.08405 3.21697 4.39208 2.96418C5.18131 2.31647 6.19465 1.95755 7.76413 1.77203C9.35016 1.58456 11.404 1.58333 14.2305 1.58333C17.0569 1.58333 19.1108 1.58456 20.6968 1.77203C22.2663 1.95755 23.2796 2.31647 24.0689 2.96418C24.3769 3.21697 24.6593 3.49941 24.9121 3.80744C25.5598 4.59667 25.9188 5.61001 26.1043 7.17949C26.2917 8.76552 26.293 10.8194 26.293 13.6458V15.3542C26.293 18.1806 26.2917 20.2345 26.1043 21.8205C25.9188 23.39 25.5598 24.4033 24.9121 25.1926C24.6593 25.5006 24.3769 25.783 24.0689 26.0358C23.2796 26.6835 22.2663 27.0424 20.6968 27.228C19.1108 27.4154 17.0569 27.4167 14.2305 27.4167C11.404 27.4167 9.35016 27.4154 7.76413 27.228C6.19465 27.0424 5.18131 26.6835 4.39208 26.0358C4.08405 25.783 3.80161 25.5006 3.54882 25.1926C2.90111 24.4033 2.54219 23.39 2.35667 21.8205C2.1692 20.2345 2.16797 18.1806 2.16797 15.3542V13.6458C2.16797 13.2316 1.83218 12.8958 1.41797 12.8958C1.00376 12.8958 0.667969 13.2316 0.667969 13.6458V15.3542V15.4048V15.4048C0.667962 18.17 0.667957 20.3123 0.867042 21.9966C1.0693 23.7077 1.48592 25.0434 2.38931 26.1441C2.70443 26.5281 3.05651 26.8802 3.44049 27.1953C4.54127 28.0987 5.87696 28.5153 7.58805 28.7176C9.2723 28.9167 11.4146 28.9167 14.1798 28.9167H14.2305H14.2812C17.0463 28.9167 19.1886 28.9167 20.8729 28.7176C22.584 28.5153 23.9197 28.0987 25.0205 27.1953C25.4044 26.8802 25.7565 26.5281 26.0716 26.1441C26.975 25.0434 27.3916 23.7077 27.5939 21.9966C27.6666 21.3812 27.7128 20.7046 27.7421 19.9589L27.8323 20.004L27.8913 20.0335C29.5033 20.8396 30.7902 21.483 31.8261 21.822C32.8851 22.1685 33.8744 22.2628 34.7636 21.7132C35.6529 21.1636 36.0109 20.2366 36.1746 19.1345C36.3347 18.0563 36.3347 16.6175 36.3346 14.8153V14.7492V14.2508V14.1847C36.3347 12.3824 36.3347 10.9436 36.1746 9.86553C36.0109 8.76334 35.6529 7.83634 34.7636 7.28676C33.8744 6.73717 32.8851 6.83149 31.8261 7.17801C30.7902 7.51696 29.5033 8.16043 27.8913 8.96645L27.8913 8.96646L27.8323 8.99599L27.7421 9.04107C27.7128 8.29534 27.6666 7.6188 27.5939 7.00341C27.3916 5.29232 26.975 3.95663 26.0716 2.85585C25.7565 2.47187 25.4044 2.11979 25.0205 1.80467C23.9197 0.901279 22.584 0.484657 20.8729 0.2824C19.1886 0.0833147 17.0463 0.0833204 14.2811 0.0833283H14.2305ZM27.793 13.5065C27.793 13.536 27.793 13.5655 27.793 13.5951V13.6458V15.3542V15.4049C27.793 15.4345 27.793 15.464 27.793 15.4935V18.3073L28.5031 18.6624C30.1876 19.5046 31.3751 20.0962 32.2926 20.3964C33.1995 20.6931 33.649 20.6388 33.975 20.4373C34.3011 20.2357 34.5507 19.858 34.6909 18.9141C34.8326 17.9593 34.8346 16.6326 34.8346 14.7492V14.2508C34.8346 12.3674 34.8326 11.0407 34.6909 10.0859C34.5507 9.14196 34.3011 8.76426 33.975 8.56273C33.649 8.36121 33.1995 8.30688 32.2926 8.60363C31.3751 8.90383 30.1876 9.49535 28.5031 10.3376L27.793 10.6927V13.5065Z" fill="#9029E2"/>
</svg>
