<svg width="22" height="22" viewBox="0 0 22 22" fill="none" xmlns="http://www.w3.org/2000/svg">
<path d="M13.3964 8.09266C13.6317 8.3638 14.0422 8.39288 14.3134 8.15761C14.5845 7.92234 14.6136 7.51181 14.3783 7.24067L13.3964 8.09266ZM8.60358 13.9073C8.36831 13.6362 7.95778 13.6071 7.68664 13.8424C7.41549 14.0777 7.38641 14.4882 7.62168 14.7593L8.60358 13.9073ZM11.65 5.44444C11.65 5.08546 11.359 4.79444 11 4.79444C10.641 4.79444 10.35 5.08546 10.35 5.44444H11.65ZM10.35 16.5555C10.35 16.9145 10.641 17.2055 11 17.2056C11.359 17.2056 11.65 16.9146 11.65 16.5556L10.35 16.5555ZM20.35 11C20.35 16.1639 16.1639 20.35 11 20.35V21.65C16.8818 21.65 21.65 16.8818 21.65 11H20.35ZM11 20.35C5.83614 20.35 1.65 16.1639 1.65 11H0.35C0.35 16.8818 5.11817 21.65 11 21.65V20.35ZM1.65 11C1.65 5.83614 5.83614 1.65 11 1.65V0.35C5.11817 0.35 0.35 5.11817 0.35 11H1.65ZM11 1.65C16.1639 1.65 20.35 5.83614 20.35 11H21.65C21.65 5.11817 16.8818 0.35 11 0.35V1.65ZM11 10.35C10.19 10.35 9.48599 10.1299 9.00353 9.80829C8.51653 9.48362 8.31667 9.10648 8.31667 8.77778H7.01667C7.01667 9.67638 7.563 10.4103 8.28242 10.89C9.00639 11.3726 9.9691 11.65 11 11.65V10.35ZM8.31667 8.77778C8.31667 8.44908 8.51653 8.07193 9.00353 7.74726C9.48599 7.42562 10.19 7.20556 11 7.20556V5.90556C9.9691 5.90556 9.00639 6.18295 8.28242 6.6656C7.563 7.14521 7.01667 7.87918 7.01667 8.77778H8.31667ZM11 7.20556C12.0995 7.20556 12.9751 7.60702 13.3964 8.09266L14.3783 7.24067C13.647 6.39787 12.3681 5.90556 11 5.90556V7.20556ZM11 11.65C11.81 11.65 12.514 11.8701 12.9965 12.1917C13.4835 12.5164 13.6834 12.8935 13.6834 13.2222H14.9834C14.9834 12.3236 14.437 11.5897 13.7176 11.11C12.9936 10.6274 12.0309 10.35 11 10.35V11.65ZM10.35 5.44444V6.55556H11.65V5.44444H10.35ZM10.35 15.4444L10.35 16.5555L11.65 16.5556L11.65 15.4445L10.35 15.4444ZM11 14.7944C9.90055 14.7944 9.02497 14.393 8.60358 13.9073L7.62168 14.7593C8.35298 15.6021 9.63191 16.0944 11 16.0944L11 14.7944ZM13.6834 13.2222C13.6834 13.5509 13.4835 13.9281 12.9965 14.2527C12.514 14.5744 11.8101 14.7944 11 14.7944V16.0944C12.0309 16.0944 12.9936 15.817 13.7176 15.3344C14.437 14.8548 14.9834 14.1208 14.9834 13.2222H13.6834ZM10.35 6.55556L10.35 15.4444L11.65 15.4444L11.65 6.55555L10.35 6.55556Z" fill="black"/>
</svg>
