<svg width="25" height="23" viewBox="0 0 25 23" fill="none" xmlns="http://www.w3.org/2000/svg">
<path d="M1.56714 10.3333H3.94444C5.29447 10.3333 6.38889 11.378 6.38889 12.6667V13.8333C6.38889 15.122 7.4833 16.1667 8.83333 16.1667C10.1834 16.1667 11.2778 17.2113 11.2778 18.5V21.9359M7.61111 2.09144V3.91667C7.61111 5.5275 8.97913 6.83333 10.6667 6.83333H11.2778C12.6278 6.83333 13.7222 7.878 13.7222 9.16667C13.7222 10.4553 14.8166 11.5 16.1667 11.5C17.5167 11.5 18.6111 10.4553 18.6111 9.16667C18.6111 7.878 19.7055 6.83333 21.0556 6.83333L22.3566 6.83333M16.1667 21.4025V18.5C16.1667 17.2113 17.2611 16.1667 18.6111 16.1667H22.3566M23.5 11.5C23.5 17.299 18.5751 22 12.5 22C6.42487 22 1.5 17.299 1.5 11.5C1.5 5.70101 6.42487 1 12.5 1C18.5751 1 23.5 5.70101 23.5 11.5Z" stroke="#9029E2" stroke-width="1.3" stroke-linecap="round" stroke-linejoin="round"/>
</svg>
