<svg width="21" height="21" viewBox="0 0 21 21" fill="none" xmlns="http://www.w3.org/2000/svg">
<path d="M16.4375 12.75V19.5M12.875 16.125H20M3.375 8.25H5.75C7.06168 8.25 8.125 7.24264 8.125 6V3.75C8.125 2.50736 7.06168 1.5 5.75 1.5H3.375C2.06332 1.5 1 2.50736 1 3.75V6C1 7.24264 2.06332 8.25 3.375 8.25ZM15.25 8.25H17.625C18.9367 8.25 20 7.24264 20 6V3.75C20 2.50736 18.9367 1.5 17.625 1.5H15.25C13.9383 1.5 12.875 2.50736 12.875 3.75V6C12.875 7.24264 13.9383 8.25 15.25 8.25ZM3.375 19.5H5.75C7.06168 19.5 8.125 18.4926 8.125 17.25V15C8.125 13.7574 7.06168 12.75 5.75 12.75H3.375C2.06332 12.75 1 13.7574 1 15V17.25C1 18.4926 2.06332 19.5 3.375 19.5Z" stroke="#9029E2" stroke-width="1.3" stroke-linecap="round" stroke-linejoin="round"/>
</svg>
