<svg width="31" height="30" viewBox="0 0 31 30" fill="none" xmlns="http://www.w3.org/2000/svg">
<path d="M15.5 4.11111C15.5 2.39289 16.8929 1 18.6111 1C20.3293 1 21.7222 2.39289 21.7222 4.11111V5.66667C21.7222 6.52578 22.4187 7.22222 23.2778 7.22222H27.9444C28.8036 7.22222 29.5 7.91867 29.5 8.77778V13.4444C29.5 14.3036 28.8036 15 27.9444 15H26.3889C24.6707 15 23.2778 16.3929 23.2778 18.1111C23.2778 19.8293 24.6707 21.2222 26.3889 21.2222H27.9444C28.8036 21.2222 29.5 21.9187 29.5 22.7778V27.4444C29.5 28.3036 28.8036 29 27.9444 29H23.2778C22.4187 29 21.7222 28.3036 21.7222 27.4444V25.8889C21.7222 24.1707 20.3293 22.7778 18.6111 22.7778C16.8929 22.7778 15.5 24.1707 15.5 25.8889V27.4444C15.5 28.3036 14.8036 29 13.9444 29H9.27778C8.41867 29 7.72222 28.3036 7.72222 27.4444V22.7778C7.72222 21.9187 7.02578 21.2222 6.16667 21.2222H4.61111C2.89289 21.2222 1.5 19.8293 1.5 18.1111C1.5 16.3929 2.89289 15 4.61111 15H6.16667C7.02578 15 7.72222 14.3036 7.72222 13.4444V8.77778C7.72222 7.91867 8.41867 7.22222 9.27778 7.22222H13.9444C14.8036 7.22222 15.5 6.52578 15.5 5.66667V4.11111Z" stroke="black" stroke-width="1.3" stroke-linecap="round" stroke-linejoin="round"/>
</svg>
