<svg width="32" height="31" viewBox="0 0 32 31" fill="none" xmlns="http://www.w3.org/2000/svg">
<path d="M1.5 2.8125C1.5 1.81148 2.31148 1 3.3125 1H28.6875C29.6885 1 30.5 1.81148 30.5 2.8125V6.4375C30.5 7.43852 29.6885 8.25 28.6875 8.25H3.3125C2.31148 8.25 1.5 7.43852 1.5 6.4375V2.8125Z" stroke="black" stroke-width="1.3" stroke-linecap="round" stroke-linejoin="round"/>
<path d="M1.5 17.3125C1.5 16.3115 2.31148 15.5 3.3125 15.5H14.1875C15.1885 15.5 16 16.3115 16 17.3125V28.1875C16 29.1885 15.1885 30 14.1875 30H3.3125C2.31148 30 1.5 29.1885 1.5 28.1875V17.3125Z" stroke="black" stroke-width="1.3" stroke-linecap="round" stroke-linejoin="round"/>
<path d="M23.25 17.3125C23.25 16.3115 24.0615 15.5 25.0625 15.5H28.6875C29.6885 15.5 30.5 16.3115 30.5 17.3125V28.1875C30.5 29.1885 29.6885 30 28.6875 30H25.0625C24.0615 30 23.25 29.1885 23.25 28.1875V17.3125Z" stroke="black" stroke-width="1.3" stroke-linecap="round" stroke-linejoin="round"/>
</svg>
