<?xml version="1.0" encoding="UTF-8" standalone="no"?>
<svg
   width="23"
   height="29"
   viewBox="0 0 23 29"
   fill="none"
   version="1.1"
   id="svg4"
   sodipodi:docname="female-icon-black.svg"
   inkscape:version="1.2.2 (1:1.2.2+202305151915+b0a8486541)"
   xmlns:inkscape="http://www.inkscape.org/namespaces/inkscape"
   xmlns:sodipodi="http://sodipodi.sourceforge.net/DTD/sodipodi-0.dtd"
   xmlns="http://www.w3.org/2000/svg"
   xmlns:svg="http://www.w3.org/2000/svg">
  <defs
     id="defs8" />
  <sodipodi:namedview
     id="namedview6"
     pagecolor="#ffffff"
     bordercolor="#000000"
     borderopacity="0.25"
     inkscape:showpageshadow="2"
     inkscape:pageopacity="0.0"
     inkscape:pagecheckerboard="0"
     inkscape:deskcolor="#d1d1d1"
     showgrid="false"
     inkscape:zoom="8.137931"
     inkscape:cx="11.612288"
     inkscape:cy="14.684322"
     inkscape:window-width="1848"
     inkscape:window-height="1136"
     inkscape:window-x="72"
     inkscape:window-y="27"
     inkscape:window-maximized="1"
     inkscape:current-layer="svg4" />
  <path
     fill-rule="evenodd"
     clip-rule="evenodd"
     d="M20.5946 10.8133C20.5946 15.8362 16.5228 19.9079 11.5 19.9079C6.47718 19.9079 2.4054 15.8362 2.4054 10.8133C2.4054 5.79054 6.47718 1.71875 11.5 1.71875C16.5228 1.71875 20.5946 5.79054 20.5946 10.8133ZM12.2432 21.3823C17.7477 21.0008 22.0946 16.4147 22.0946 10.8133C22.0946 4.96211 17.3512 0.21875 11.5 0.21875C5.64876 0.21875 0.905396 4.96211 0.905396 10.8133C0.905396 16.4101 5.24519 20.9933 10.7432 21.3813V24.4485H7.71621V25.9485H10.7432V28.2187H12.2432V25.9485H14.527V24.4485H12.2432V21.3823Z"
     fill="#9029E2"
     id="path2"
     style="fill:#000000" />
  <path
     style="fill:#000000;stroke-width:0.122881"
     d="M 10.813559,27.033898 V 25.866525 H 9.2775424 7.7415254 v -0.675847 -0.675847 h 1.536017 1.5360166 V 22.934232 21.353634 L 9.8829408,21.203509 C 7.5849839,20.832809 5.7868437,19.908321 4.0757696,18.217834 -0.5102813,13.686965 0.08833286,6.1815165 5.345339,2.2999224 7.3040457,0.85368016 9.5613312,0.20387098 12.137133,0.34475524 c 1.610367,0.0880795 2.454783,0.30620461 3.919777,1.01253696 2.149895,1.0365497 3.852981,2.7408139 4.892517,4.8958978 0.831341,1.7234726 0.97919,2.4120485 0.97919,4.560369 0,2.150135 -0.147685,2.836589 -0.982662,4.567504 -1.541884,3.196346 -4.642612,5.440401 -8.135574,5.88787 l -0.645127,0.08264 V 22.9332 24.514827 H 13.332627 14.5 v 0.675847 0.675847 h -1.167373 -1.167373 v 1.167373 1.167373 h -0.675847 -0.675848 z m 3.256356,-7.437756 c 3.058115,-0.947746 5.245886,-3.150925 6.224968,-6.268807 0.415055,-1.32174 0.415055,-3.7058118 0,-5.0275509 C 19.304394,5.145574 17.139456,2.9796934 14.008475,2.0106384 12.817064,1.6418907 10.456264,1.6060794 9.2161017,1.9379421 6.0520263,2.7846368 3.5788834,5.2167015 2.6840785,8.3614701 2.2936426,9.7336471 2.2913294,11.88563 2.6788278,13.246509 c 0.9599634,3.371356 3.5832771,5.814483 7.0287993,6.546016 1.1366809,0.241334 3.2580519,0.145833 4.3622879,-0.196383 z"
     id="path944" />
</svg>
