<svg width="22" height="27" viewBox="0 0 22 27" fill="none" xmlns="http://www.w3.org/2000/svg">
<path d="M7.16739 15.8117C6.91 15.5615 6.49848 15.5673 6.24824 15.8247C5.998 16.0821 6.00379 16.4936 6.26118 16.7438L7.16739 15.8117ZM9.57143 19.0556L9.11833 19.5216C9.37061 19.7669 9.77225 19.7669 10.0245 19.5216L9.57143 19.0556ZM15.7388 13.966C15.9962 13.7158 16.002 13.3043 15.7518 13.0469C15.5015 12.7895 15.09 12.7837 14.8326 13.034L15.7388 13.966ZM20.35 6.55556V23.2222H21.65V6.55556H20.35ZM18.1429 25.35H3.85714V26.65H18.1429V25.35ZM1.65 23.2222V6.55556H0.35V23.2222H1.65ZM3.85714 4.42778H6.71429V3.12778H3.85714V4.42778ZM15.2857 4.42778H18.1429V3.12778H15.2857V4.42778ZM3.85714 25.35C2.62079 25.35 1.65 24.3802 1.65 23.2222H0.35C0.35 25.1325 1.93758 26.65 3.85714 26.65V25.35ZM20.35 23.2222C20.35 24.3802 19.3792 25.35 18.1429 25.35V26.65C20.0624 26.65 21.65 25.1325 21.65 23.2222H20.35ZM21.65 6.55556C21.65 4.64531 20.0624 3.12778 18.1429 3.12778V4.42778C19.3792 4.42778 20.35 5.39756 20.35 6.55556H21.65ZM1.65 6.55556C1.65 5.39756 2.62079 4.42778 3.85714 4.42778V3.12778C1.93758 3.12778 0.35 4.64531 0.35 6.55556H1.65ZM6.26118 16.7438L9.11833 19.5216L10.0245 18.5895L7.16739 15.8117L6.26118 16.7438ZM10.0245 19.5216L15.7388 13.966L14.8326 13.034L9.11833 18.5895L10.0245 19.5216ZM9.57143 1.65H12.4286V0.35H9.57143V1.65ZM12.4286 5.90556H9.57143V7.20556H12.4286V5.90556ZM9.57143 5.90556C8.33507 5.90556 7.36429 4.93578 7.36429 3.77778H6.06429C6.06429 5.68803 7.65187 7.20556 9.57143 7.20556V5.90556ZM14.6357 3.77778C14.6357 4.93578 13.6649 5.90556 12.4286 5.90556V7.20556C14.3481 7.20556 15.9357 5.68803 15.9357 3.77778H14.6357ZM12.4286 1.65C13.6649 1.65 14.6357 2.61978 14.6357 3.77778H15.9357C15.9357 1.86753 14.3481 0.35 12.4286 0.35V1.65ZM9.57143 0.35C7.65187 0.35 6.06429 1.86753 6.06429 3.77778H7.36429C7.36429 2.61978 8.33507 1.65 9.57143 1.65V0.35Z" fill="black"/>
</svg>
