<svg width="276" height="76" viewBox="0 0 276 76" fill="none" xmlns="http://www.w3.org/2000/svg">
<rect width="276" height="76" rx="38" fill="black"/>
<path d="M40.5 24.8322C41.7623 23.402 43.6091 22.5 45.6667 22.5C49.4713 22.5 52.5556 25.5843 52.5556 29.3889C52.5556 33.1935 49.4713 36.2778 45.6667 36.2778C43.6091 36.2778 41.7623 35.3758 40.5 33.9456M45.6667 53.5H25V51.7778C25 46.0708 29.6264 41.4444 35.3333 41.4444C41.0403 41.4444 45.6667 46.0708 45.6667 51.7778V53.5ZM45.6667 53.5H56V51.7778C56 46.0708 51.3736 41.4444 45.6667 41.4444C43.7845 41.4444 42.0199 41.9476 40.5 42.8269M42.2222 29.3889C42.2222 33.1935 39.138 36.2778 35.3333 36.2778C31.5287 36.2778 28.4444 33.1935 28.4444 29.3889C28.4444 25.5843 31.5287 22.5 35.3333 22.5C39.138 22.5 42.2222 25.5843 42.2222 29.3889Z" stroke="#FBF3FF" stroke-width="1.3" stroke-linecap="round" stroke-linejoin="round"/>
<circle cx="85.5" cy="38" r="5.5" fill="#FBF3FF"/>
<circle cx="113.5" cy="38" r="5.5" fill="#FBF3FF"/>
<circle cx="141.5" cy="38" r="5.5" fill="#FBF3FF"/>
<circle cx="169.5" cy="38" r="5.5" fill="#FBF3FF"/>
<circle cx="197.5" cy="38" r="5.5" fill="#FBF3FF"/>
<path d="M234.318 40.9859C234.065 40.7315 233.653 40.7305 233.399 40.9838C233.144 41.237 233.143 41.6486 233.396 41.903L234.318 40.9859ZM237.286 44.8889L236.825 45.3474C236.947 45.47 237.113 45.5389 237.286 45.5389C237.459 45.5389 237.624 45.47 237.746 45.3474L237.286 44.8889ZM244.604 38.4586C244.857 38.2041 244.856 37.7926 244.601 37.5393C244.347 37.2861 243.935 37.287 243.682 37.5414L244.604 38.4586ZM250.35 29.3889V50.0556H251.65V29.3889H250.35ZM247.571 52.85H230.429V54.15H247.571V52.85ZM227.65 50.0556V29.3889H226.35V50.0556H227.65ZM230.429 26.5944H233.857V25.2944H230.429V26.5944ZM244.143 26.5944H247.571V25.2944H244.143V26.5944ZM230.429 52.85C228.897 52.85 227.65 51.6017 227.65 50.0556H226.35C226.35 52.314 228.173 54.15 230.429 54.15V52.85ZM250.35 50.0556C250.35 51.6017 249.103 52.85 247.571 52.85V54.15C249.827 54.15 251.65 52.314 251.65 50.0556H250.35ZM251.65 29.3889C251.65 27.1304 249.827 25.2944 247.571 25.2944V26.5944C249.103 26.5944 250.35 27.8427 250.35 29.3889H251.65ZM227.65 29.3889C227.65 27.8427 228.897 26.5944 230.429 26.5944V25.2944C228.173 25.2944 226.35 27.1304 226.35 29.3889H227.65ZM233.396 41.903L236.825 45.3474L237.746 44.4303L234.318 40.9859L233.396 41.903ZM237.746 45.3474L244.604 38.4586L243.682 37.5414L236.825 44.4303L237.746 45.3474ZM237.286 23.15H240.714V21.85H237.286V23.15ZM240.714 28.7389H237.286V30.0389H240.714V28.7389ZM237.286 28.7389C235.754 28.7389 234.507 27.4906 234.507 25.9444H233.207C233.207 28.2029 235.03 30.0389 237.286 30.0389V28.7389ZM243.493 25.9444C243.493 27.4906 242.246 28.7389 240.714 28.7389V30.0389C242.97 30.0389 244.793 28.2029 244.793 25.9444H243.493ZM240.714 23.15C242.246 23.15 243.493 24.3983 243.493 25.9444H244.793C244.793 23.686 242.97 21.85 240.714 21.85V23.15ZM237.286 21.85C235.03 21.85 233.207 23.686 233.207 25.9444H234.507C234.507 24.3983 235.754 23.15 237.286 23.15V21.85Z" fill="#FBF3FF"/>
</svg>
