<svg width="25" height="22" viewBox="0 0 25 22" fill="none" xmlns="http://www.w3.org/2000/svg">
<path d="M9.94444 4.75H3.55556C2.14416 4.75 1 5.86929 1 7.25V18.5C1 19.8807 2.14416 21 3.55556 21H21.4444C22.8558 21 24 19.8807 24 18.5V7.25C24 5.86929 22.8558 4.75 21.4444 4.75H15.0556M9.94444 4.75V3.5C9.94444 2.11929 11.0886 1 12.5 1C13.9114 1 15.0556 2.11929 15.0556 3.5V4.75M9.94444 4.75C9.94444 6.13071 11.0886 7.25 12.5 7.25C13.9114 7.25 15.0556 6.13071 15.0556 4.75M8.66667 14.75C10.0781 14.75 11.2222 13.6307 11.2222 12.25C11.2222 10.8693 10.0781 9.75 8.66667 9.75C7.25527 9.75 6.11111 10.8693 6.11111 12.25C6.11111 13.6307 7.25527 14.75 8.66667 14.75ZM8.66667 14.75C10.3357 14.75 11.7556 15.7935 12.2818 17.25M8.66667 14.75C6.99761 14.75 5.57763 15.7935 5.05139 17.25M16.3333 11H20.1667M16.3333 16H18.8889" stroke="black" stroke-width="1.3" stroke-linecap="round" stroke-linejoin="round"/>
</svg>
