<?xml version="1.0" encoding="UTF-8" standalone="no"?>
<svg
   width="27"
   height="29"
   viewBox="0 0 27 29"
   fill="none"
   version="1.1"
   id="svg4"
   sodipodi:docname="male-icon-black.svg"
   inkscape:version="1.2.2 (1:1.2.2+202305151915+b0a8486541)"
   xmlns:inkscape="http://www.inkscape.org/namespaces/inkscape"
   xmlns:sodipodi="http://sodipodi.sourceforge.net/DTD/sodipodi-0.dtd"
   xmlns="http://www.w3.org/2000/svg"
   xmlns:svg="http://www.w3.org/2000/svg">
  <defs
     id="defs8" />
  <sodipodi:namedview
     id="namedview6"
     pagecolor="#ffffff"
     bordercolor="#000000"
     borderopacity="0.25"
     inkscape:showpageshadow="2"
     inkscape:pageopacity="0.0"
     inkscape:pagecheckerboard="0"
     inkscape:deskcolor="#d1d1d1"
     showgrid="false"
     inkscape:zoom="8.137931"
     inkscape:cx="13.57839"
     inkscape:cy="14.684322"
     inkscape:window-width="1848"
     inkscape:window-height="1136"
     inkscape:window-x="72"
     inkscape:window-y="27"
     inkscape:window-maximized="1"
     inkscape:current-layer="svg4" />
  <path
     fill-rule="evenodd"
     clip-rule="evenodd"
     d="M27 0.283325V1.78333V7.25107H25.5V2.65429L19.3289 8.82544C21.3778 10.8744 22.6452 13.7051 22.6452 16.8317C22.6452 23.085 17.5759 28.1543 11.3226 28.1543C5.06929 28.1543 0 23.085 0 16.8317C0 10.5784 5.06929 5.50913 11.3226 5.50913C13.9084 5.50913 16.2918 6.37598 18.198 7.83493L24.2496 1.78333L20.0323 1.78333V0.283325H25.5H27ZM11.3226 26.6543C16.7474 26.6543 21.1452 22.2566 21.1452 16.8317C21.1452 11.4069 16.7474 7.00913 11.3226 7.00913C5.89772 7.00913 1.5 11.4069 1.5 16.8317C1.5 22.2566 5.89772 26.6543 11.3226 26.6543Z"
     fill="#9029E2"
     id="path2"
     style="fill:#000000" />
  <path
     style="fill:#000000;stroke-width:0.122881"
     d="M 9.2775424,27.896554 C 6.0140103,27.290809 3.05525,25.130851 1.4241318,22.163395 0.53035596,20.537369 0.11342894,18.837364 0.11342894,16.81905 c 0,-2.971642 0.99511916,-5.496979 3.00550976,-7.627152 C 4.6455878,7.5742891 6.422262,6.5026925 8.5402542,5.9220455 9.9680796,5.5306076 12.786663,5.537991 14.179898,5.9368189 c 1.175235,0.3364228 2.483823,0.9351237 3.384564,1.5484942 l 0.668275,0.4550701 3.079302,-3.0793017 3.079302,-3.0793018 h -2.1194 -2.119399 V 1.0444915 0.30720339 h 3.379238 3.379237 V 3.7478814 7.1885593 H 26.235169 25.559322 V 4.9152542 c 0,-1.2503178 -0.04189,-2.273305 -0.09308,-2.273305 -0.0512,0 -1.469383,1.3771269 -3.151528,3.060282 l -3.058446,3.060282 0.797921,0.9972771 c 3.642061,4.5520137 3.293374,10.9319627 -0.822415,15.0477507 -2.568786,2.568787 -6.381888,3.752076 -9.9542286,3.089013 z m 3.5021186,-1.297733 c 3.953713,-0.623791 7.114622,-3.469491 8.115758,-7.306448 0.356696,-1.367077 0.356696,-3.548177 0,-4.915254 C 20.160463,11.560328 18.271591,9.2551244 15.645876,7.9705087 10.768053,5.5840623 4.9022563,7.5672768 2.5120892,12.411017 c -0.8100926,1.641675 -0.9760723,2.393924 -0.9760723,4.423729 0,1.949481 0.160996,2.733 0.8711041,4.239407 1.8345928,3.89186 6.1507538,6.190752 10.37254,5.524668 z"
     id="path806" />
</svg>
