<svg width="765" height="646" viewBox="0 0 765 646" fill="none" xmlns="http://www.w3.org/2000/svg">
<rect x="1.15" y="0.65" width="762.7" height="644.7" rx="31.35" stroke="black" stroke-width="1.3" stroke-dasharray="33 33"/>
<path d="M285.749 514L294.199 493.375H295.974L287.524 514H285.749ZM307.051 511.3C305.768 511.3 304.568 511.067 303.451 510.6C302.334 510.117 301.351 509.45 300.501 508.6C299.668 507.733 299.009 506.717 298.526 505.55C298.059 504.367 297.826 503.075 297.826 501.675C297.826 500.258 298.059 498.967 298.526 497.8C299.009 496.633 299.676 495.625 300.526 494.775C301.376 493.908 302.351 493.242 303.451 492.775C304.568 492.308 305.768 492.075 307.051 492.075C308.318 492.075 309.509 492.308 310.626 492.775C311.743 493.242 312.718 493.908 313.551 494.775C314.401 495.625 315.068 496.642 315.551 497.825C316.034 498.992 316.276 500.275 316.276 501.675C316.276 503.075 316.034 504.367 315.551 505.55C315.068 506.717 314.401 507.733 313.551 508.6C312.718 509.45 311.743 510.117 310.626 510.6C309.509 511.067 308.318 511.3 307.051 511.3ZM307.051 509.75C308.168 509.75 309.193 509.542 310.126 509.125C311.059 508.708 311.859 508.125 312.526 507.375C313.209 506.625 313.734 505.767 314.101 504.8C314.468 503.817 314.651 502.775 314.651 501.675C314.651 500.592 314.468 499.567 314.101 498.6C313.734 497.617 313.209 496.75 312.526 496C311.859 495.25 311.059 494.667 310.126 494.25C309.209 493.817 308.184 493.6 307.051 493.6C305.918 493.6 304.884 493.817 303.951 494.25C303.034 494.667 302.234 495.25 301.551 496C300.884 496.75 300.368 497.617 300.001 498.6C299.634 499.567 299.451 500.592 299.451 501.675C299.451 502.775 299.634 503.817 300.001 504.8C300.368 505.767 300.884 506.625 301.551 507.375C302.234 508.125 303.043 508.708 303.976 509.125C304.909 509.542 305.934 509.75 307.051 509.75ZM312.626 513.25L306.201 503.55H308.076L314.501 513.25H312.626ZM324.822 511.3C323.922 511.3 323.089 511.092 322.322 510.675C321.572 510.258 320.972 509.675 320.522 508.925C320.072 508.158 319.847 507.25 319.847 506.2V497.725H321.347V506.075C321.347 506.858 321.506 507.533 321.822 508.1C322.156 508.65 322.597 509.075 323.147 509.375C323.714 509.675 324.347 509.825 325.047 509.825C325.814 509.825 326.472 509.65 327.022 509.3C327.589 508.95 328.022 508.467 328.322 507.85C328.622 507.217 328.772 506.5 328.772 505.7V497.725H330.272V511H328.772V508.3L329.147 508.425C328.847 509.292 328.314 509.992 327.547 510.525C326.781 511.042 325.872 511.3 324.822 511.3ZM340.604 511.3C339.337 511.3 338.196 511 337.179 510.4C336.162 509.8 335.354 508.975 334.754 507.925C334.171 506.858 333.879 505.667 333.879 504.35C333.879 503.033 334.171 501.85 334.754 500.8C335.354 499.75 336.154 498.925 337.154 498.325C338.171 497.725 339.321 497.425 340.604 497.425C341.871 497.425 343.012 497.725 344.029 498.325C345.046 498.925 345.846 499.75 346.429 500.8C347.012 501.833 347.304 503.017 347.304 504.35C347.304 505.683 347.004 506.875 346.404 507.925C345.804 508.975 344.996 509.8 343.979 510.4C342.979 511 341.854 511.3 340.604 511.3ZM340.604 509.825C341.554 509.825 342.412 509.592 343.179 509.125C343.962 508.642 344.579 507.983 345.029 507.15C345.479 506.317 345.704 505.383 345.704 504.35C345.704 503.317 345.479 502.392 345.029 501.575C344.579 500.758 343.971 500.108 343.204 499.625C342.437 499.142 341.571 498.9 340.604 498.9C339.637 498.9 338.762 499.142 337.979 499.625C337.212 500.092 336.604 500.742 336.154 501.575C335.704 502.392 335.479 503.317 335.479 504.35C335.479 505.383 335.704 506.317 336.154 507.15C336.621 507.983 337.237 508.642 338.004 509.125C338.771 509.592 339.637 509.825 340.604 509.825ZM355.489 511.15C354.389 511.15 353.539 510.842 352.939 510.225C352.339 509.592 352.039 508.675 352.039 507.475V499.15H349.539V497.725H350.489C350.989 497.725 351.373 497.575 351.639 497.275C351.906 496.975 352.039 496.567 352.039 496.05V494.625H353.539V497.725H356.439V499.15H353.539V507.475C353.539 507.842 353.589 508.2 353.689 508.55C353.806 508.9 354.023 509.183 354.339 509.4C354.656 509.617 355.114 509.725 355.714 509.725C355.848 509.725 356.006 509.717 356.189 509.7C356.389 509.683 356.548 509.667 356.664 509.65V511C356.481 511.05 356.273 511.083 356.039 511.1C355.806 511.133 355.623 511.15 355.489 511.15ZM365.846 511.3C364.596 511.3 363.471 511 362.471 510.4C361.471 509.783 360.679 508.95 360.096 507.9C359.512 506.833 359.221 505.642 359.221 504.325C359.221 503.008 359.504 501.833 360.071 500.8C360.637 499.75 361.404 498.925 362.371 498.325C363.337 497.725 364.421 497.425 365.621 497.425C366.537 497.425 367.362 497.592 368.096 497.925C368.846 498.258 369.487 498.725 370.021 499.325C370.571 499.908 370.987 500.583 371.271 501.35C371.571 502.1 371.721 502.892 371.721 503.725C371.721 503.892 371.712 504.067 371.696 504.25C371.679 504.433 371.654 504.625 371.621 504.825H360.096V503.45H370.771L370.096 503.975C370.196 503.008 370.054 502.142 369.671 501.375C369.287 500.592 368.737 499.975 368.021 499.525C367.321 499.058 366.521 498.825 365.621 498.825C364.721 498.825 363.896 499.067 363.146 499.55C362.396 500.017 361.804 500.667 361.371 501.5C360.937 502.317 360.737 503.267 360.771 504.35C360.737 505.433 360.946 506.392 361.396 507.225C361.846 508.058 362.462 508.717 363.246 509.2C364.029 509.667 364.896 509.9 365.846 509.9C366.812 509.9 367.654 509.675 368.371 509.225C369.087 508.758 369.671 508.142 370.121 507.375L371.396 508.05C371.096 508.667 370.671 509.225 370.121 509.725C369.571 510.208 368.929 510.592 368.196 510.875C367.479 511.158 366.696 511.3 365.846 511.3ZM379.424 511V497.725H380.924V511H379.424ZM379.424 495.125V492.375H380.924V495.125H379.424ZM389.514 511.3C388.281 511.3 387.198 510.992 386.264 510.375C385.331 509.758 384.648 508.917 384.214 507.85L385.514 507.25C385.931 508.067 386.489 508.717 387.189 509.2C387.889 509.667 388.664 509.9 389.514 509.9C390.381 509.9 391.106 509.692 391.689 509.275C392.289 508.842 392.589 508.275 392.589 507.575C392.589 507.142 392.473 506.775 392.239 506.475C392.023 506.175 391.739 505.933 391.389 505.75C391.039 505.55 390.664 505.4 390.264 505.3L388.214 504.725C387.064 504.408 386.214 503.942 385.664 503.325C385.131 502.708 384.864 501.983 384.864 501.15C384.864 500.4 385.056 499.75 385.439 499.2C385.823 498.633 386.339 498.2 386.989 497.9C387.639 497.583 388.356 497.425 389.139 497.425C390.239 497.425 391.239 497.708 392.139 498.275C393.039 498.842 393.673 499.608 394.039 500.575L392.689 501.2C392.339 500.45 391.848 499.867 391.214 499.45C390.581 499.017 389.881 498.8 389.114 498.8C388.314 498.8 387.664 499.017 387.164 499.45C386.664 499.867 386.414 500.4 386.414 501.05C386.414 501.467 386.514 501.817 386.714 502.1C386.914 502.367 387.173 502.592 387.489 502.775C387.823 502.942 388.164 503.075 388.514 503.175L390.739 503.825C391.823 504.125 392.656 504.6 393.239 505.25C393.839 505.9 394.139 506.667 394.139 507.55C394.139 508.267 393.939 508.908 393.539 509.475C393.139 510.042 392.589 510.492 391.889 510.825C391.189 511.142 390.398 511.3 389.514 511.3ZM401.861 511V497.725H403.361V500.2L403.086 499.975C403.369 499.225 403.852 498.633 404.536 498.2C405.236 497.767 406.061 497.55 407.011 497.55H407.861V499.05H406.836C405.752 499.05 404.902 499.4 404.286 500.1C403.669 500.783 403.361 501.708 403.361 502.875V511H401.861ZM416.407 511.3C415.157 511.3 414.032 511 413.032 510.4C412.032 509.783 411.241 508.95 410.657 507.9C410.074 506.833 409.782 505.642 409.782 504.325C409.782 503.008 410.066 501.833 410.632 500.8C411.199 499.75 411.966 498.925 412.932 498.325C413.899 497.725 414.982 497.425 416.182 497.425C417.099 497.425 417.924 497.592 418.657 497.925C419.407 498.258 420.049 498.725 420.582 499.325C421.132 499.908 421.549 500.583 421.832 501.35C422.132 502.1 422.282 502.892 422.282 503.725C422.282 503.892 422.274 504.067 422.257 504.25C422.241 504.433 422.216 504.625 422.182 504.825H410.657V503.45H421.332L420.657 503.975C420.757 503.008 420.616 502.142 420.232 501.375C419.849 500.592 419.299 499.975 418.582 499.525C417.882 499.058 417.082 498.825 416.182 498.825C415.282 498.825 414.457 499.067 413.707 499.55C412.957 500.017 412.366 500.667 411.932 501.5C411.499 502.317 411.299 503.267 411.332 504.35C411.299 505.433 411.507 506.392 411.957 507.225C412.407 508.058 413.024 508.717 413.807 509.2C414.591 509.667 415.457 509.9 416.407 509.9C417.374 509.9 418.216 509.675 418.932 509.225C419.649 508.758 420.232 508.142 420.682 507.375L421.957 508.05C421.657 508.667 421.232 509.225 420.682 509.725C420.132 510.208 419.491 510.592 418.757 510.875C418.041 511.158 417.257 511.3 416.407 511.3ZM429.416 511.3C428.582 511.3 427.841 511.142 427.191 510.825C426.541 510.508 426.024 510.067 425.641 509.5C425.257 508.933 425.066 508.283 425.066 507.55C425.066 506.9 425.207 506.292 425.491 505.725C425.774 505.158 426.232 504.675 426.866 504.275C427.499 503.858 428.324 503.567 429.341 503.4L434.716 502.5V503.9L429.741 504.725C428.607 504.908 427.807 505.25 427.341 505.75C426.874 506.25 426.641 506.833 426.641 507.5C426.641 508.217 426.907 508.8 427.441 509.25C427.991 509.7 428.682 509.925 429.516 509.925C430.482 509.925 431.324 509.708 432.041 509.275C432.757 508.825 433.316 508.242 433.716 507.525C434.116 506.792 434.316 505.992 434.316 505.125V501.825C434.316 500.942 433.999 500.225 433.366 499.675C432.732 499.125 431.907 498.85 430.891 498.85C430.057 498.85 429.307 499.058 428.641 499.475C427.974 499.892 427.466 500.433 427.116 501.1L425.766 500.375C426.016 499.842 426.399 499.35 426.916 498.9C427.432 498.45 428.032 498.092 428.716 497.825C429.399 497.558 430.124 497.425 430.891 497.425C431.857 497.425 432.707 497.617 433.441 498C434.191 498.367 434.774 498.883 435.191 499.55C435.607 500.2 435.816 500.958 435.816 501.825V511H434.316V508.225L434.491 508.35C434.274 508.883 433.916 509.375 433.416 509.825C432.916 510.258 432.324 510.617 431.641 510.9C430.974 511.167 430.232 511.3 429.416 511.3ZM445.922 511.3C444.688 511.3 443.572 511 442.572 510.4C441.588 509.783 440.813 508.95 440.247 507.9C439.68 506.85 439.397 505.667 439.397 504.35C439.397 503.033 439.68 501.85 440.247 500.8C440.813 499.75 441.588 498.925 442.572 498.325C443.572 497.725 444.688 497.425 445.922 497.425C447.138 497.425 448.222 497.717 449.172 498.3C450.122 498.867 450.838 499.633 451.322 500.6L451.072 501.075V492.075H452.572V511H451.072V507.625L451.322 507.975C450.855 509.008 450.138 509.825 449.172 510.425C448.222 511.008 447.138 511.3 445.922 511.3ZM445.972 509.8C446.938 509.8 447.797 509.567 448.547 509.1C449.313 508.617 449.922 507.967 450.372 507.15C450.822 506.317 451.047 505.383 451.047 504.35C451.047 503.317 450.822 502.392 450.372 501.575C449.922 500.758 449.313 500.117 448.547 499.65C447.797 499.167 446.938 498.925 445.972 498.925C445.022 498.925 444.172 499.167 443.422 499.65C442.672 500.117 442.08 500.758 441.647 501.575C441.213 502.392 440.997 503.317 440.997 504.35C440.997 505.383 441.213 506.317 441.647 507.15C442.08 507.967 442.672 508.617 443.422 509.1C444.172 509.567 445.022 509.8 445.972 509.8ZM456.769 516.5C456.536 516.5 456.277 516.475 455.994 516.425C455.727 516.392 455.469 516.333 455.219 516.25V514.85C455.419 514.9 455.644 514.942 455.894 514.975C456.161 515.008 456.402 515.025 456.619 515.025C457.436 515.008 458.077 514.808 458.544 514.425C459.011 514.042 459.436 513.408 459.819 512.525L460.769 510.3V511.7L455.144 497.725H456.794L461.619 509.775H461.019L465.869 497.725H467.544L461.344 512.85C461.111 513.4 460.802 513.958 460.419 514.525C460.036 515.092 459.544 515.558 458.944 515.925C458.361 516.308 457.636 516.5 456.769 516.5ZM468.024 514L476.474 493.375H478.249L469.799 514H468.024ZM358.175 545.3C356.991 545.3 355.891 545.083 354.875 544.65C353.875 544.217 353.008 543.617 352.275 542.85C351.558 542.067 351.033 541.158 350.7 540.125L353.525 538.9C353.975 539.967 354.625 540.808 355.475 541.425C356.325 542.025 357.283 542.325 358.35 542.325C358.95 542.325 359.466 542.233 359.9 542.05C360.35 541.85 360.691 541.583 360.925 541.25C361.175 540.917 361.3 540.517 361.3 540.05C361.3 539.5 361.133 539.05 360.8 538.7C360.483 538.333 360 538.05 359.35 537.85L355.775 536.7C354.325 536.25 353.233 535.575 352.5 534.675C351.766 533.775 351.4 532.717 351.4 531.5C351.4 530.433 351.658 529.492 352.175 528.675C352.708 527.858 353.441 527.225 354.375 526.775C355.325 526.308 356.408 526.075 357.625 526.075C358.741 526.075 359.766 526.275 360.7 526.675C361.633 527.058 362.433 527.6 363.1 528.3C363.783 528.983 364.291 529.792 364.625 530.725L361.825 531.975C361.458 531.042 360.908 530.325 360.175 529.825C359.441 529.308 358.591 529.05 357.625 529.05C357.058 529.05 356.558 529.15 356.125 529.35C355.691 529.533 355.35 529.8 355.1 530.15C354.866 530.483 354.75 530.883 354.75 531.35C354.75 531.867 354.916 532.325 355.25 532.725C355.583 533.108 356.091 533.408 356.775 533.625L360.2 534.7C361.683 535.183 362.791 535.85 363.525 536.7C364.275 537.55 364.65 538.6 364.65 539.85C364.65 540.917 364.375 541.858 363.825 542.675C363.275 543.492 362.516 544.133 361.55 544.6C360.583 545.067 359.458 545.3 358.175 545.3ZM356.975 547.5V523.875H359.1V547.5H356.975ZM373.236 545.3C372.219 545.3 371.253 545.117 370.336 544.75C369.436 544.367 368.661 543.833 368.011 543.15C367.378 542.45 366.944 541.625 366.711 540.675L369.686 539.625C369.986 540.475 370.444 541.125 371.061 541.575C371.678 542.008 372.403 542.225 373.236 542.225C373.903 542.225 374.478 542.1 374.961 541.85C375.461 541.6 375.853 541.242 376.136 540.775C376.419 540.292 376.561 539.725 376.561 539.075C376.561 538.425 376.419 537.875 376.136 537.425C375.869 536.958 375.486 536.6 374.986 536.35C374.486 536.1 373.894 535.975 373.211 535.975C372.894 535.975 372.561 536.008 372.211 536.075C371.878 536.142 371.578 536.242 371.311 536.375L370.536 534.75L375.361 529.25H367.761V526.375H379.186V529.05L374.336 534.725L374.386 533.45C375.503 533.467 376.478 533.708 377.311 534.175C378.144 534.642 378.794 535.283 379.261 536.1C379.728 536.917 379.961 537.875 379.961 538.975C379.961 540.175 379.669 541.258 379.086 542.225C378.503 543.175 377.703 543.925 376.686 544.475C375.669 545.025 374.519 545.3 373.236 545.3ZM388.619 545.3C387.636 545.3 386.694 545.117 385.794 544.75C384.911 544.383 384.144 543.867 383.494 543.2C382.861 542.517 382.428 541.708 382.194 540.775L385.144 539.725C385.428 540.575 385.886 541.208 386.519 541.625C387.153 542.025 387.853 542.225 388.619 542.225C389.253 542.225 389.811 542.092 390.294 541.825C390.794 541.542 391.178 541.158 391.444 540.675C391.711 540.175 391.844 539.6 391.844 538.95C391.844 538.3 391.703 537.733 391.419 537.25C391.153 536.767 390.778 536.392 390.294 536.125C389.811 535.842 389.253 535.7 388.619 535.7C387.969 535.7 387.378 535.842 386.844 536.125C386.328 536.408 385.953 536.817 385.719 537.35L382.944 536.725L384.419 526.375H394.569V529.25H385.769L387.044 527.775L385.994 535.575L385.019 534.775C385.486 534.092 386.053 533.592 386.719 533.275C387.403 532.958 388.228 532.8 389.194 532.8C390.428 532.8 391.494 533.067 392.394 533.6C393.311 534.133 394.019 534.858 394.519 535.775C395.019 536.692 395.269 537.75 395.269 538.95C395.269 540.15 394.978 541.233 394.394 542.2C393.811 543.167 393.019 543.925 392.019 544.475C391.019 545.025 389.886 545.3 388.619 545.3ZM405.425 545.3C403.942 545.3 402.642 544.9 401.525 544.1C400.409 543.3 399.534 542.175 398.9 540.725C398.284 539.275 397.975 537.592 397.975 535.675C397.975 533.742 398.284 532.058 398.9 530.625C399.517 529.192 400.384 528.075 401.5 527.275C402.617 526.475 403.917 526.075 405.4 526.075C406.917 526.075 408.225 526.475 409.325 527.275C410.442 528.075 411.317 529.2 411.95 530.65C412.584 532.083 412.9 533.758 412.9 535.675C412.9 537.592 412.584 539.275 411.95 540.725C411.334 542.158 410.467 543.283 409.35 544.1C408.234 544.9 406.925 545.3 405.425 545.3ZM405.45 542.2C406.3 542.2 407.025 541.942 407.625 541.425C408.225 540.892 408.684 540.142 409 539.175C409.334 538.192 409.5 537.025 409.5 535.675C409.5 534.325 409.334 533.167 409 532.2C408.684 531.217 408.217 530.467 407.6 529.95C407 529.433 406.267 529.175 405.4 529.175C404.567 529.175 403.85 529.433 403.25 529.95C402.65 530.467 402.184 531.217 401.85 532.2C401.534 533.167 401.375 534.325 401.375 535.675C401.375 537.008 401.534 538.167 401.85 539.15C402.184 540.117 402.65 540.867 403.25 541.4C403.867 541.933 404.6 542.2 405.45 542.2Z" fill="#193718"/>
<rect x="220" y="465.5" width="324" height="100" rx="50" stroke="black"/>
<circle cx="667.5" cy="515" r="51" fill="black"/>
<rect x="321.5" y="97" width="120" height="120" rx="60" fill="black"/>
<path d="M376.167 142.222L381.5 136.889M381.5 136.889L386.833 142.222M381.5 136.889L381.5 151.111M381.5 128C390.337 128 397.5 135.163 397.5 144C397.5 152.837 390.337 160 381.5 160C372.663 160 365.5 152.837 365.5 144C365.5 135.163 372.663 128 381.5 128Z" stroke="white" stroke-width="1.3" stroke-linecap="round" stroke-linejoin="round"/>
<path d="M361.9 184.168C361.163 184.168 360.514 184.014 359.954 183.706C359.394 183.398 358.96 182.978 358.652 182.446C358.344 181.905 358.19 181.289 358.19 180.598V173.57H359.31V180.598C359.31 181.102 359.417 181.545 359.632 181.928C359.856 182.301 360.159 182.595 360.542 182.81C360.934 183.015 361.387 183.118 361.9 183.118C362.413 183.118 362.861 183.015 363.244 182.81C363.636 182.595 363.939 182.301 364.154 181.928C364.378 181.545 364.49 181.102 364.49 180.598V173.57H365.61V180.598C365.61 181.289 365.456 181.905 365.148 182.446C364.84 182.978 364.406 183.398 363.846 183.706C363.295 184.014 362.647 184.168 361.9 184.168ZM367.881 186.8V176.496H368.931V178.176L368.763 177.882C369.061 177.406 369.458 177.028 369.953 176.748C370.457 176.468 371.031 176.328 371.675 176.328C372.384 176.328 373.014 176.501 373.565 176.846C374.125 177.182 374.563 177.644 374.881 178.232C375.207 178.82 375.371 179.492 375.371 180.248C375.371 180.995 375.207 181.667 374.881 182.264C374.563 182.852 374.125 183.319 373.565 183.664C373.014 184 372.384 184.168 371.675 184.168C371.031 184.168 370.447 184.023 369.925 183.734C369.411 183.435 369.024 183.015 368.763 182.474L368.931 182.32V186.8H367.881ZM371.619 183.118C372.123 183.118 372.571 182.992 372.963 182.74C373.364 182.488 373.677 182.147 373.901 181.718C374.134 181.279 374.251 180.789 374.251 180.248C374.251 179.697 374.134 179.207 373.901 178.778C373.677 178.349 373.364 178.008 372.963 177.756C372.571 177.504 372.123 177.378 371.619 177.378C371.115 177.378 370.657 177.504 370.247 177.756C369.845 178.008 369.523 178.353 369.281 178.792C369.047 179.221 368.931 179.707 368.931 180.248C368.931 180.789 369.047 181.279 369.281 181.718C369.523 182.147 369.845 182.488 370.247 182.74C370.657 182.992 371.115 183.118 371.619 183.118ZM377.219 184V173.402H378.269V184H377.219ZM383.932 184.168C383.223 184.168 382.579 184 382 183.664C381.421 183.319 380.959 182.852 380.614 182.264C380.278 181.667 380.11 180.99 380.11 180.234C380.11 179.487 380.278 178.82 380.614 178.232C380.95 177.644 381.403 177.182 381.972 176.846C382.551 176.501 383.204 176.328 383.932 176.328C384.66 176.328 385.309 176.496 385.878 176.832C386.457 177.168 386.909 177.63 387.236 178.218C387.572 178.806 387.74 179.478 387.74 180.234C387.74 180.999 387.567 181.681 387.222 182.278C386.877 182.866 386.415 183.328 385.836 183.664C385.267 184 384.632 184.168 383.932 184.168ZM383.932 183.118C384.436 183.118 384.889 182.992 385.29 182.74C385.701 182.488 386.023 182.143 386.256 181.704C386.499 181.265 386.62 180.775 386.62 180.234C386.62 179.693 386.499 179.207 386.256 178.778C386.023 178.349 385.701 178.008 385.29 177.756C384.889 177.504 384.436 177.378 383.932 177.378C383.428 177.378 382.971 177.504 382.56 177.756C382.159 178.008 381.837 178.349 381.594 178.778C381.351 179.207 381.23 179.693 381.23 180.234C381.23 180.775 381.351 181.265 381.594 181.704C381.837 182.143 382.159 182.488 382.56 182.74C382.971 182.992 383.428 183.118 383.932 183.118ZM391.762 184.168C391.286 184.168 390.861 184.079 390.488 183.902C390.114 183.715 389.82 183.463 389.606 183.146C389.391 182.829 389.284 182.465 389.284 182.054C389.284 181.662 389.368 181.307 389.536 180.99C389.704 180.663 389.965 180.388 390.32 180.164C390.674 179.94 391.127 179.781 391.678 179.688L394.618 179.198V180.15L391.93 180.598C391.388 180.691 390.996 180.864 390.754 181.116C390.52 181.368 390.404 181.667 390.404 182.012C390.404 182.348 390.534 182.633 390.796 182.866C391.066 183.099 391.412 183.216 391.832 183.216C392.345 183.216 392.793 183.109 393.176 182.894C393.558 182.67 393.857 182.371 394.072 181.998C394.286 181.625 394.394 181.209 394.394 180.752V178.848C394.394 178.4 394.23 178.036 393.904 177.756C393.577 177.476 393.152 177.336 392.63 177.336C392.172 177.336 391.771 177.453 391.426 177.686C391.08 177.91 390.824 178.204 390.656 178.568L389.704 178.05C389.844 177.733 390.063 177.443 390.362 177.182C390.67 176.921 391.02 176.715 391.412 176.566C391.804 176.407 392.21 176.328 392.63 176.328C393.18 176.328 393.666 176.435 394.086 176.65C394.515 176.865 394.846 177.163 395.08 177.546C395.322 177.919 395.444 178.353 395.444 178.848V184H394.394V182.502L394.548 182.656C394.417 182.936 394.212 183.193 393.932 183.426C393.661 183.65 393.339 183.832 392.966 183.972C392.602 184.103 392.2 184.168 391.762 184.168ZM400.991 184.168C400.291 184.168 399.661 184 399.101 183.664C398.541 183.319 398.098 182.852 397.771 182.264C397.454 181.667 397.295 180.995 397.295 180.248C397.295 179.492 397.454 178.82 397.771 178.232C398.098 177.644 398.537 177.182 399.087 176.846C399.647 176.501 400.282 176.328 400.991 176.328C401.635 176.328 402.209 176.468 402.713 176.748C403.217 177.028 403.614 177.406 403.903 177.882L403.735 178.176V173.402H404.785V184H403.735V182.32L403.903 182.474C403.642 183.015 403.25 183.435 402.727 183.734C402.214 184.023 401.635 184.168 400.991 184.168ZM401.047 183.118C401.551 183.118 402.004 182.992 402.405 182.74C402.816 182.488 403.138 182.147 403.371 181.718C403.614 181.279 403.735 180.789 403.735 180.248C403.735 179.707 403.614 179.221 403.371 178.792C403.138 178.353 402.816 178.008 402.405 177.756C402.004 177.504 401.551 177.378 401.047 177.378C400.553 177.378 400.105 177.504 399.703 177.756C399.302 178.008 398.985 178.349 398.751 178.778C398.527 179.207 398.415 179.697 398.415 180.248C398.415 180.789 398.527 181.279 398.751 181.718C398.985 182.147 399.297 182.488 399.689 182.74C400.091 182.992 400.543 183.118 401.047 183.118Z" fill="white"/>
<path d="M656.94 517.54V514.84H676.14V517.54H656.94Z" fill="white"/>
<circle cx="97" cy="515.5" r="50.5" fill="black"/>
<path d="M96.56 533V519.32H82.88V516.62H96.56V503H99.26V516.62H112.88V519.32H99.26V533H96.56Z" fill="white"/>
<circle cx="382" cy="156.5" r="75.85" stroke="black" stroke-width="1.3"/>
<line x1="382.15" y1="233" x2="382.15" y2="465" stroke="black" stroke-width="1.3"/>
<rect x="275.5" y="313" width="212.702" height="80.0199" rx="40.0099" fill="#FBF3FF"/>
<path d="M346.012 362.143C344.959 362.143 343.992 361.957 343.112 361.583C342.232 361.197 341.465 360.663 340.812 359.983C340.172 359.29 339.672 358.477 339.312 357.543C338.952 356.61 338.772 355.583 338.772 354.463C338.772 353.343 338.952 352.317 339.312 351.383C339.672 350.45 340.172 349.637 340.812 348.943C341.465 348.25 342.232 347.717 343.112 347.343C343.992 346.957 344.959 346.763 346.012 346.763C347.025 346.763 347.932 346.943 348.732 347.303C349.545 347.663 350.225 348.13 350.772 348.703C351.332 349.263 351.732 349.857 351.972 350.483L350.472 351.143C350.099 350.277 349.525 349.583 348.752 349.063C347.992 348.53 347.079 348.263 346.012 348.263C344.919 348.263 343.945 348.523 343.092 349.043C342.239 349.563 341.572 350.29 341.092 351.223C340.612 352.143 340.372 353.223 340.372 354.463C340.372 355.69 340.612 356.77 341.092 357.703C341.572 358.637 342.239 359.363 343.092 359.883C343.945 360.39 344.919 360.643 346.012 360.643C347.079 360.643 347.992 360.383 348.752 359.863C349.525 359.343 350.099 358.65 350.472 357.783L351.972 358.443C351.732 359.057 351.332 359.65 350.772 360.223C350.225 360.783 349.545 361.243 348.732 361.603C347.932 361.963 347.025 362.143 346.012 362.143ZM354.617 361.903V346.763H356.117V353.263L355.777 353.183C356.044 352.49 356.477 351.943 357.077 351.543C357.69 351.143 358.397 350.943 359.197 350.943C359.957 350.943 360.637 351.117 361.237 351.463C361.85 351.81 362.33 352.29 362.677 352.903C363.037 353.503 363.217 354.183 363.217 354.943V361.903H361.717V355.523C361.717 354.87 361.597 354.317 361.357 353.863C361.117 353.41 360.784 353.063 360.357 352.823C359.944 352.57 359.47 352.443 358.937 352.443C358.404 352.443 357.924 352.57 357.497 352.823C357.07 353.063 356.73 353.417 356.477 353.883C356.237 354.337 356.117 354.883 356.117 355.523V361.903H354.617ZM369.182 362.143C368.502 362.143 367.895 362.017 367.362 361.763C366.828 361.497 366.408 361.137 366.102 360.683C365.795 360.23 365.642 359.71 365.642 359.123C365.642 358.563 365.762 358.057 366.002 357.603C366.242 357.137 366.615 356.743 367.122 356.423C367.628 356.103 368.275 355.877 369.062 355.743L373.262 355.043V356.403L369.422 357.043C368.648 357.177 368.088 357.423 367.742 357.783C367.408 358.143 367.242 358.57 367.242 359.063C367.242 359.543 367.428 359.95 367.802 360.283C368.188 360.617 368.682 360.783 369.282 360.783C370.015 360.783 370.655 360.63 371.202 360.323C371.748 360.003 372.175 359.577 372.482 359.043C372.788 358.51 372.942 357.917 372.942 357.263V354.543C372.942 353.903 372.708 353.383 372.242 352.983C371.775 352.583 371.168 352.383 370.422 352.383C369.768 352.383 369.195 352.55 368.702 352.883C368.208 353.203 367.842 353.623 367.602 354.143L366.242 353.403C366.442 352.95 366.755 352.537 367.182 352.163C367.622 351.79 368.122 351.497 368.682 351.283C369.242 351.057 369.822 350.943 370.422 350.943C371.208 350.943 371.902 351.097 372.502 351.403C373.115 351.71 373.588 352.137 373.922 352.683C374.268 353.217 374.442 353.837 374.442 354.543V361.903H372.942V359.763L373.162 359.983C372.975 360.383 372.682 360.75 372.282 361.083C371.895 361.403 371.435 361.663 370.902 361.863C370.382 362.05 369.808 362.143 369.182 362.143ZM381.432 362.023C380.472 362.023 379.732 361.743 379.212 361.183C378.692 360.623 378.432 359.823 378.432 358.783V352.683H376.452V351.183H376.952C377.405 351.183 377.765 351.037 378.032 350.743C378.298 350.437 378.432 350.057 378.432 349.603V348.703H379.932V351.183H382.292V352.683H379.932V358.783C379.932 359.143 379.985 359.463 380.092 359.743C380.198 360.01 380.378 360.223 380.632 360.383C380.898 360.543 381.252 360.623 381.692 360.623C381.798 360.623 381.925 360.617 382.072 360.603C382.218 360.59 382.345 360.577 382.452 360.563V361.903C382.292 361.943 382.112 361.97 381.912 361.983C381.712 362.01 381.552 362.023 381.432 362.023ZM392.106 362.143C391.052 362.143 390.086 361.957 389.206 361.583C388.326 361.197 387.559 360.663 386.906 359.983C386.266 359.29 385.766 358.477 385.406 357.543C385.046 356.61 384.866 355.583 384.866 354.463C384.866 353.343 385.046 352.317 385.406 351.383C385.766 350.45 386.266 349.637 386.906 348.943C387.559 348.25 388.326 347.717 389.206 347.343C390.086 346.957 391.052 346.763 392.106 346.763C393.119 346.763 394.026 346.943 394.826 347.303C395.639 347.663 396.319 348.13 396.866 348.703C397.426 349.263 397.826 349.857 398.066 350.483L396.626 351.183C396.252 350.277 395.679 349.563 394.906 349.043C394.132 348.523 393.199 348.263 392.106 348.263C391.012 348.263 390.039 348.523 389.186 349.043C388.332 349.563 387.666 350.29 387.186 351.223C386.706 352.143 386.466 353.223 386.466 354.463C386.466 355.69 386.706 356.77 387.186 357.703C387.666 358.637 388.332 359.363 389.186 359.883C390.039 360.39 391.012 360.643 392.106 360.643C393.079 360.643 393.952 360.43 394.726 360.003C395.512 359.577 396.132 358.997 396.586 358.263C397.039 357.517 397.266 356.663 397.266 355.703V354.883L397.986 355.603H392.106V354.203H398.866V355.443C398.866 356.417 398.692 357.317 398.346 358.143C397.999 358.957 397.519 359.663 396.906 360.263C396.292 360.863 395.572 361.33 394.746 361.663C393.932 361.983 393.052 362.143 392.106 362.143ZM401.731 361.903V347.003H406.851C407.825 347.003 408.678 347.197 409.411 347.583C410.145 347.957 410.711 348.49 411.111 349.183C411.525 349.863 411.731 350.657 411.731 351.563C411.731 352.47 411.525 353.263 411.111 353.943C410.711 354.623 410.145 355.157 409.411 355.543C408.691 355.917 407.838 356.103 406.851 356.103H403.331V361.903H401.731ZM403.331 354.603H406.931C407.571 354.603 408.131 354.483 408.611 354.243C409.091 353.99 409.465 353.637 409.731 353.183C409.998 352.717 410.131 352.17 410.131 351.543C410.131 350.917 409.998 350.377 409.731 349.923C409.465 349.47 409.091 349.123 408.611 348.883C408.131 348.63 407.571 348.503 406.931 348.503H403.331V354.603ZM417.163 361.903V348.503H413.043V347.003H422.843V348.503H418.763V361.903H417.163Z" fill="#193718"/>
</svg>
