<svg width="700" height="217" viewBox="0 0 700 217" fill="none" xmlns="http://www.w3.org/2000/svg">
<rect x="1.15" y="0.65" width="697.7" height="215.033" rx="31.35" stroke="black" stroke-width="1.3" stroke-dasharray="33 33"/>
<path d="M489.873 108.847L495.957 93.9969H497.235L491.151 108.847H489.873ZM505.211 106.903C504.287 106.903 503.423 106.735 502.619 106.399C501.815 106.051 501.107 105.571 500.495 104.959C499.895 104.335 499.421 103.603 499.073 102.763C498.737 101.911 498.569 100.981 498.569 99.9729C498.569 98.9529 498.737 98.0229 499.073 97.1829C499.421 96.3429 499.901 95.6169 500.513 95.0049C501.125 94.3809 501.827 93.9009 502.619 93.5649C503.423 93.2289 504.287 93.0609 505.211 93.0609C506.123 93.0609 506.981 93.2289 507.785 93.5649C508.589 93.9009 509.291 94.3809 509.891 95.0049C510.503 95.6169 510.983 96.3489 511.331 97.2009C511.679 98.0409 511.853 98.9649 511.853 99.9729C511.853 100.981 511.679 101.911 511.331 102.763C510.983 103.603 510.503 104.335 509.891 104.959C509.291 105.571 508.589 106.051 507.785 106.399C506.981 106.735 506.123 106.903 505.211 106.903ZM505.211 105.787C506.015 105.787 506.753 105.637 507.425 105.337C508.097 105.037 508.673 104.617 509.153 104.077C509.645 103.537 510.023 102.919 510.287 102.223C510.551 101.515 510.683 100.765 510.683 99.9729C510.683 99.1929 510.551 98.4549 510.287 97.7589C510.023 97.0509 509.645 96.4269 509.153 95.8869C508.673 95.3469 508.097 94.9269 507.425 94.6269C506.765 94.3149 506.027 94.1589 505.211 94.1589C504.395 94.1589 503.651 94.3149 502.979 94.6269C502.319 94.9269 501.743 95.3469 501.251 95.8869C500.771 96.4269 500.399 97.0509 500.135 97.7589C499.871 98.4549 499.739 99.1929 499.739 99.9729C499.739 100.765 499.871 101.515 500.135 102.223C500.399 102.919 500.771 103.537 501.251 104.077C501.743 104.617 502.325 105.037 502.997 105.337C503.669 105.637 504.407 105.787 505.211 105.787ZM509.225 108.307L504.599 101.323H505.949L510.575 108.307H509.225ZM518.006 106.903C517.358 106.903 516.758 106.753 516.206 106.453C515.666 106.153 515.234 105.733 514.91 105.193C514.586 104.641 514.424 103.987 514.424 103.231V97.1289H515.504V103.141C515.504 103.705 515.618 104.191 515.846 104.599C516.086 104.995 516.404 105.301 516.8 105.517C517.208 105.733 517.664 105.841 518.168 105.841C518.72 105.841 519.194 105.715 519.59 105.463C519.998 105.211 520.31 104.863 520.526 104.419C520.742 103.963 520.85 103.447 520.85 102.871V97.1289H521.93V106.687H520.85V104.743L521.12 104.833C520.904 105.457 520.52 105.961 519.968 106.345C519.416 106.717 518.762 106.903 518.006 106.903ZM529.369 106.903C528.457 106.903 527.635 106.687 526.903 106.255C526.171 105.823 525.589 105.229 525.157 104.473C524.737 103.705 524.527 102.847 524.527 101.899C524.527 100.951 524.737 100.099 525.157 99.3429C525.589 98.5869 526.165 97.9929 526.885 97.5609C527.617 97.1289 528.445 96.9129 529.369 96.9129C530.281 96.9129 531.103 97.1289 531.835 97.5609C532.567 97.9929 533.143 98.5869 533.563 99.3429C533.983 100.087 534.193 100.939 534.193 101.899C534.193 102.859 533.977 103.717 533.545 104.473C533.113 105.229 532.531 105.823 531.799 106.255C531.079 106.687 530.269 106.903 529.369 106.903ZM529.369 105.841C530.053 105.841 530.671 105.673 531.223 105.337C531.787 104.989 532.231 104.515 532.555 103.915C532.879 103.315 533.041 102.643 533.041 101.899C533.041 101.155 532.879 100.489 532.555 99.9009C532.231 99.3129 531.793 98.8449 531.241 98.4969C530.689 98.1489 530.065 97.9749 529.369 97.9749C528.673 97.9749 528.043 98.1489 527.479 98.4969C526.927 98.8329 526.489 99.3009 526.165 99.9009C525.841 100.489 525.679 101.155 525.679 101.899C525.679 102.643 525.841 103.315 526.165 103.915C526.501 104.515 526.945 104.989 527.497 105.337C528.049 105.673 528.673 105.841 529.369 105.841ZM540.087 106.795C539.295 106.795 538.683 106.573 538.251 106.129C537.819 105.673 537.603 105.013 537.603 104.149V98.1549H535.803V97.1289H536.487C536.847 97.1289 537.123 97.0209 537.315 96.8049C537.507 96.5889 537.603 96.2949 537.603 95.9229V94.8969H538.683V97.1289H540.771V98.1549H538.683V104.149C538.683 104.413 538.719 104.671 538.791 104.923C538.875 105.175 539.031 105.379 539.259 105.535C539.487 105.691 539.817 105.769 540.249 105.769C540.345 105.769 540.459 105.763 540.591 105.751C540.735 105.739 540.849 105.727 540.933 105.715V106.687C540.801 106.723 540.651 106.747 540.483 106.759C540.315 106.783 540.183 106.795 540.087 106.795ZM547.543 106.903C546.643 106.903 545.833 106.687 545.113 106.255C544.393 105.811 543.823 105.211 543.403 104.455C542.983 103.687 542.773 102.829 542.773 101.881C542.773 100.933 542.977 100.087 543.385 99.3429C543.793 98.5869 544.345 97.9929 545.041 97.5609C545.737 97.1289 546.517 96.9129 547.381 96.9129C548.041 96.9129 548.635 97.0329 549.163 97.2729C549.703 97.5129 550.165 97.8489 550.549 98.2809C550.945 98.7009 551.245 99.1869 551.449 99.7389C551.665 100.279 551.773 100.849 551.773 101.449C551.773 101.569 551.767 101.695 551.755 101.827C551.743 101.959 551.725 102.097 551.701 102.241H543.403V101.251H551.089L550.603 101.629C550.675 100.933 550.573 100.309 550.297 99.7569C550.021 99.1929 549.625 98.7489 549.109 98.4249C548.605 98.0889 548.029 97.9209 547.381 97.9209C546.733 97.9209 546.139 98.0949 545.599 98.4429C545.059 98.7789 544.633 99.2469 544.321 99.8469C544.009 100.435 543.865 101.119 543.889 101.899C543.865 102.679 544.015 103.369 544.339 103.969C544.663 104.569 545.107 105.043 545.671 105.391C546.235 105.727 546.859 105.895 547.543 105.895C548.239 105.895 548.845 105.733 549.361 105.409C549.877 105.073 550.297 104.629 550.621 104.077L551.539 104.563C551.323 105.007 551.017 105.409 550.621 105.769C550.225 106.117 549.763 106.393 549.235 106.597C548.719 106.801 548.155 106.903 547.543 106.903ZM557.32 106.687V97.1289H558.4V106.687H557.32ZM557.32 95.2569V93.2769H558.4V95.2569H557.32ZM564.585 106.903C563.697 106.903 562.917 106.681 562.245 106.237C561.573 105.793 561.081 105.187 560.769 104.419L561.705 103.987C562.005 104.575 562.407 105.043 562.911 105.391C563.415 105.727 563.973 105.895 564.585 105.895C565.209 105.895 565.731 105.745 566.151 105.445C566.583 105.133 566.799 104.725 566.799 104.221C566.799 103.909 566.715 103.645 566.547 103.429C566.391 103.213 566.187 103.039 565.935 102.907C565.683 102.763 565.413 102.655 565.125 102.583L563.649 102.169C562.821 101.941 562.209 101.605 561.813 101.161C561.429 100.717 561.237 100.195 561.237 99.5949C561.237 99.0549 561.375 98.5869 561.651 98.1909C561.927 97.7829 562.299 97.4709 562.767 97.2549C563.235 97.0269 563.751 96.9129 564.315 96.9129C565.107 96.9129 565.827 97.1169 566.475 97.5249C567.123 97.9329 567.579 98.4849 567.843 99.1809L566.871 99.6309C566.619 99.0909 566.265 98.6709 565.809 98.3709C565.353 98.0589 564.849 97.9029 564.297 97.9029C563.721 97.9029 563.253 98.0589 562.893 98.3709C562.533 98.6709 562.353 99.0549 562.353 99.5229C562.353 99.8229 562.425 100.075 562.569 100.279C562.713 100.471 562.899 100.633 563.127 100.765C563.367 100.885 563.613 100.981 563.865 101.053L565.467 101.521C566.247 101.737 566.847 102.079 567.267 102.547C567.699 103.015 567.915 103.567 567.915 104.203C567.915 104.719 567.771 105.181 567.483 105.589C567.195 105.997 566.799 106.321 566.295 106.561C565.791 106.789 565.221 106.903 564.585 106.903ZM573.474 106.687V97.1289H574.554V98.9109L574.356 98.7489C574.56 98.2089 574.908 97.7829 575.4 97.4709C575.904 97.1589 576.498 97.0029 577.182 97.0029H577.794V98.0829H577.056C576.276 98.0829 575.664 98.3349 575.22 98.8389C574.776 99.3309 574.554 99.9969 574.554 100.837V106.687H573.474ZM583.948 106.903C583.048 106.903 582.238 106.687 581.518 106.255C580.798 105.811 580.228 105.211 579.808 104.455C579.388 103.687 579.178 102.829 579.178 101.881C579.178 100.933 579.382 100.087 579.79 99.3429C580.198 98.5869 580.75 97.9929 581.446 97.5609C582.142 97.1289 582.922 96.9129 583.786 96.9129C584.446 96.9129 585.04 97.0329 585.568 97.2729C586.108 97.5129 586.57 97.8489 586.954 98.2809C587.35 98.7009 587.65 99.1869 587.854 99.7389C588.07 100.279 588.178 100.849 588.178 101.449C588.178 101.569 588.172 101.695 588.16 101.827C588.148 101.959 588.13 102.097 588.106 102.241H579.808V101.251H587.494L587.008 101.629C587.08 100.933 586.978 100.309 586.702 99.7569C586.426 99.1929 586.03 98.7489 585.514 98.4249C585.01 98.0889 584.434 97.9209 583.786 97.9209C583.138 97.9209 582.544 98.0949 582.004 98.4429C581.464 98.7789 581.038 99.2469 580.726 99.8469C580.414 100.435 580.27 101.119 580.294 101.899C580.27 102.679 580.42 103.369 580.744 103.969C581.068 104.569 581.512 105.043 582.076 105.391C582.64 105.727 583.264 105.895 583.948 105.895C584.644 105.895 585.25 105.733 585.766 105.409C586.282 105.073 586.702 104.629 587.026 104.077L587.944 104.563C587.728 105.007 587.422 105.409 587.026 105.769C586.63 106.117 586.168 106.393 585.64 106.597C585.124 106.801 584.56 106.903 583.948 106.903ZM593.313 106.903C592.713 106.903 592.179 106.789 591.711 106.561C591.243 106.333 590.871 106.015 590.595 105.607C590.319 105.199 590.181 104.731 590.181 104.203C590.181 103.735 590.283 103.297 590.487 102.889C590.691 102.481 591.021 102.133 591.477 101.845C591.933 101.545 592.527 101.335 593.259 101.215L597.129 100.567V101.575L593.547 102.169C592.731 102.301 592.155 102.547 591.819 102.907C591.483 103.267 591.315 103.687 591.315 104.167C591.315 104.683 591.507 105.103 591.891 105.427C592.287 105.751 592.785 105.913 593.385 105.913C594.081 105.913 594.687 105.757 595.203 105.445C595.719 105.121 596.121 104.701 596.409 104.185C596.697 103.657 596.841 103.081 596.841 102.457V100.081C596.841 99.4449 596.613 98.9289 596.157 98.5329C595.701 98.1369 595.107 97.9389 594.375 97.9389C593.775 97.9389 593.235 98.0889 592.755 98.3889C592.275 98.6889 591.909 99.0789 591.657 99.5589L590.685 99.0369C590.865 98.6529 591.141 98.2989 591.513 97.9749C591.885 97.6509 592.317 97.3929 592.809 97.2009C593.301 97.0089 593.823 96.9129 594.375 96.9129C595.071 96.9129 595.683 97.0509 596.211 97.3269C596.751 97.5909 597.171 97.9629 597.471 98.4429C597.771 98.9109 597.921 99.4569 597.921 100.081V106.687H596.841V104.689L596.967 104.779C596.811 105.163 596.553 105.517 596.193 105.841C595.833 106.153 595.407 106.411 594.915 106.615C594.435 106.807 593.901 106.903 593.313 106.903ZM605.198 106.903C604.31 106.903 603.506 106.687 602.786 106.255C602.078 105.811 601.52 105.211 601.112 104.455C600.704 103.699 600.5 102.847 600.5 101.899C600.5 100.951 600.704 100.099 601.112 99.3429C601.52 98.5869 602.078 97.9929 602.786 97.5609C603.506 97.1289 604.31 96.9129 605.198 96.9129C606.074 96.9129 606.854 97.1229 607.538 97.5429C608.222 97.9509 608.738 98.5029 609.086 99.1989L608.906 99.5409V93.0609H609.986V106.687H608.906V104.257L609.086 104.509C608.75 105.253 608.234 105.841 607.538 106.273C606.854 106.693 606.074 106.903 605.198 106.903ZM605.234 105.823C605.93 105.823 606.548 105.655 607.088 105.319C607.64 104.971 608.078 104.503 608.402 103.915C608.726 103.315 608.888 102.643 608.888 101.899C608.888 101.155 608.726 100.489 608.402 99.9009C608.078 99.3129 607.64 98.8509 607.088 98.5149C606.548 98.1669 605.93 97.9929 605.234 97.9929C604.55 97.9929 603.938 98.1669 603.398 98.5149C602.858 98.8509 602.432 99.3129 602.12 99.9009C601.808 100.489 601.652 101.155 601.652 101.899C601.652 102.643 601.808 103.315 602.12 103.915C602.432 104.503 602.858 104.971 603.398 105.319C603.938 105.655 604.55 105.823 605.234 105.823ZM613.008 110.647C612.84 110.647 612.654 110.629 612.45 110.593C612.258 110.569 612.072 110.527 611.892 110.467V109.459C612.036 109.495 612.198 109.525 612.378 109.549C612.57 109.573 612.744 109.585 612.9 109.585C613.488 109.573 613.95 109.429 614.286 109.153C614.622 108.877 614.928 108.421 615.204 107.785L615.888 106.183V107.191L611.838 97.1289H613.026L616.5 105.805H616.068L619.56 97.1289H620.766L616.302 108.019C616.134 108.415 615.912 108.817 615.636 109.225C615.36 109.633 615.006 109.969 614.574 110.233C614.154 110.509 613.632 110.647 613.008 110.647ZM621.112 108.847L627.196 93.9969H628.474L622.39 108.847H621.112ZM542.02 126.903C541.168 126.903 540.376 126.747 539.644 126.435C538.924 126.123 538.3 125.691 537.772 125.139C537.256 124.575 536.878 123.921 536.638 123.177L538.672 122.295C538.996 123.063 539.464 123.669 540.076 124.113C540.688 124.545 541.378 124.761 542.146 124.761C542.578 124.761 542.95 124.695 543.262 124.563C543.586 124.419 543.832 124.227 544 123.987C544.18 123.747 544.27 123.459 544.27 123.123C544.27 122.727 544.15 122.403 543.91 122.151C543.682 121.887 543.334 121.683 542.866 121.539L540.292 120.711C539.248 120.387 538.462 119.901 537.934 119.253C537.406 118.605 537.142 117.843 537.142 116.967C537.142 116.199 537.328 115.521 537.7 114.933C538.084 114.345 538.612 113.889 539.284 113.565C539.968 113.229 540.748 113.061 541.624 113.061C542.428 113.061 543.166 113.205 543.838 113.493C544.51 113.769 545.086 114.159 545.566 114.663C546.058 115.155 546.424 115.737 546.664 116.409L544.648 117.309C544.384 116.637 543.988 116.121 543.46 115.761C542.932 115.389 542.32 115.203 541.624 115.203C541.216 115.203 540.856 115.275 540.544 115.419C540.232 115.551 539.986 115.743 539.806 115.995C539.638 116.235 539.554 116.523 539.554 116.859C539.554 117.231 539.674 117.561 539.914 117.849C540.154 118.125 540.52 118.341 541.012 118.497L543.478 119.271C544.546 119.619 545.344 120.099 545.872 120.711C546.412 121.323 546.682 122.079 546.682 122.979C546.682 123.747 546.484 124.425 546.088 125.013C545.692 125.601 545.146 126.063 544.45 126.399C543.754 126.735 542.944 126.903 542.02 126.903ZM541.156 128.487V111.477H542.686V128.487H541.156ZM552.864 126.903C552.132 126.903 551.436 126.771 550.776 126.507C550.128 126.231 549.57 125.847 549.102 125.355C548.646 124.851 548.334 124.257 548.166 123.573L550.308 122.817C550.524 123.429 550.854 123.897 551.298 124.221C551.742 124.533 552.264 124.689 552.864 124.689C553.344 124.689 553.758 124.599 554.106 124.419C554.466 124.239 554.748 123.981 554.952 123.645C555.156 123.297 555.258 122.889 555.258 122.421C555.258 121.953 555.156 121.557 554.952 121.233C554.76 120.897 554.484 120.639 554.124 120.459C553.764 120.279 553.338 120.189 552.846 120.189C552.618 120.189 552.378 120.213 552.126 120.261C551.886 120.309 551.67 120.381 551.478 120.477L550.92 119.307L554.394 115.347H548.922V113.277H557.148V115.203L553.656 119.289L553.692 118.371C554.496 118.383 555.198 118.557 555.798 118.893C556.398 119.229 556.866 119.691 557.202 120.279C557.538 120.867 557.706 121.557 557.706 122.349C557.706 123.213 557.496 123.993 557.076 124.689C556.656 125.373 556.08 125.913 555.348 126.309C554.616 126.705 553.788 126.903 552.864 126.903ZM563.94 126.903C563.232 126.903 562.554 126.771 561.906 126.507C561.27 126.243 560.718 125.871 560.25 125.391C559.794 124.899 559.482 124.317 559.314 123.645L561.438 122.889C561.642 123.501 561.972 123.957 562.428 124.257C562.884 124.545 563.388 124.689 563.94 124.689C564.396 124.689 564.798 124.593 565.146 124.401C565.506 124.197 565.782 123.921 565.974 123.573C566.166 123.213 566.262 122.799 566.262 122.331C566.262 121.863 566.16 121.455 565.956 121.107C565.764 120.759 565.494 120.489 565.146 120.297C564.798 120.093 564.396 119.991 563.94 119.991C563.472 119.991 563.046 120.093 562.662 120.297C562.29 120.501 562.02 120.795 561.852 121.179L559.854 120.729L560.916 113.277H568.224V115.347H561.888L562.806 114.285L562.05 119.901L561.348 119.325C561.684 118.833 562.092 118.473 562.572 118.245C563.064 118.017 563.658 117.903 564.354 117.903C565.242 117.903 566.01 118.095 566.658 118.479C567.318 118.863 567.828 119.385 568.188 120.045C568.548 120.705 568.728 121.467 568.728 122.331C568.728 123.195 568.518 123.975 568.098 124.671C567.678 125.367 567.108 125.913 566.388 126.309C565.668 126.705 564.852 126.903 563.94 126.903ZM576.04 126.903C574.972 126.903 574.036 126.615 573.232 126.039C572.428 125.463 571.798 124.653 571.342 123.609C570.898 122.565 570.676 121.353 570.676 119.973C570.676 118.581 570.898 117.369 571.342 116.337C571.786 115.305 572.41 114.501 573.214 113.925C574.018 113.349 574.954 113.061 576.022 113.061C577.114 113.061 578.056 113.349 578.848 113.925C579.652 114.501 580.282 115.311 580.738 116.355C581.194 117.387 581.422 118.593 581.422 119.973C581.422 121.353 581.194 122.565 580.738 123.609C580.294 124.641 579.67 125.451 578.866 126.039C578.062 126.615 577.12 126.903 576.04 126.903ZM576.058 124.671C576.67 124.671 577.192 124.485 577.624 124.113C578.056 123.729 578.386 123.189 578.614 122.493C578.854 121.785 578.974 120.945 578.974 119.973C578.974 119.001 578.854 118.167 578.614 117.471C578.386 116.763 578.05 116.223 577.606 115.851C577.174 115.479 576.646 115.293 576.022 115.293C575.422 115.293 574.906 115.479 574.474 115.851C574.042 116.223 573.706 116.763 573.466 117.471C573.238 118.167 573.124 119.001 573.124 119.973C573.124 120.933 573.238 121.767 573.466 122.475C573.706 123.171 574.042 123.711 574.474 124.095C574.918 124.479 575.446 124.671 576.058 124.671Z" fill="black"/>
<rect x="461.394" y="80.0942" width="195.561" height="58.1854" rx="29.0927" stroke="black"/>
<rect x="56.1326" y="55.5432" width="109.791" height="106.585" rx="53.2925" fill="black"/>
<path d="M105.694 94.0579L111.028 88.7245M111.028 88.7245L116.361 94.0579M111.028 88.7245L111.028 102.947M111.028 79.8356C119.864 79.8356 127.028 86.9991 127.028 95.8356C127.028 104.672 119.864 111.836 111.028 111.836C102.191 111.836 95.0278 104.672 95.0278 95.8356C95.0278 86.9991 102.191 79.8356 111.028 79.8356Z" stroke="white" stroke-width="1.3" stroke-linecap="round" stroke-linejoin="round"/>
<path d="M91.4278 136.004C90.6905 136.004 90.0418 135.85 89.4818 135.542C88.9218 135.234 88.4878 134.814 88.1798 134.282C87.8718 133.74 87.7178 133.124 87.7178 132.434V125.406H88.8378V132.434C88.8378 132.938 88.9452 133.381 89.1598 133.764C89.3838 134.137 89.6872 134.431 90.0698 134.646C90.4618 134.851 90.9145 134.954 91.4278 134.954C91.9412 134.954 92.3892 134.851 92.7718 134.646C93.1638 134.431 93.4672 134.137 93.6818 133.764C93.9058 133.381 94.0178 132.938 94.0178 132.434V125.406H95.1378V132.434C95.1378 133.124 94.9838 133.74 94.6758 134.282C94.3678 134.814 93.9338 135.234 93.3738 135.542C92.8232 135.85 92.1745 136.004 91.4278 136.004ZM97.4086 138.636V128.332H98.4586V130.012L98.2906 129.718C98.5892 129.242 98.9859 128.864 99.4806 128.584C99.9846 128.304 100.559 128.164 101.203 128.164C101.912 128.164 102.542 128.336 103.093 128.682C103.653 129.018 104.091 129.48 104.409 130.068C104.735 130.656 104.899 131.328 104.899 132.084C104.899 132.83 104.735 133.502 104.409 134.1C104.091 134.688 103.653 135.154 103.093 135.5C102.542 135.836 101.912 136.004 101.203 136.004C100.559 136.004 99.9752 135.859 99.4526 135.57C98.9392 135.271 98.5519 134.851 98.2906 134.31L98.4586 134.156V138.636H97.4086ZM101.147 134.954C101.651 134.954 102.099 134.828 102.491 134.576C102.892 134.324 103.205 133.983 103.429 133.554C103.662 133.115 103.779 132.625 103.779 132.084C103.779 131.533 103.662 131.043 103.429 130.614C103.205 130.184 102.892 129.844 102.491 129.592C102.099 129.34 101.651 129.214 101.147 129.214C100.643 129.214 100.185 129.34 99.7746 129.592C99.3732 129.844 99.0512 130.189 98.8086 130.628C98.5752 131.057 98.4586 131.542 98.4586 132.084C98.4586 132.625 98.5752 133.115 98.8086 133.554C99.0512 133.983 99.3732 134.324 99.7746 134.576C100.185 134.828 100.643 134.954 101.147 134.954ZM106.746 135.836V125.238H107.796V135.836H106.746ZM113.46 136.004C112.75 136.004 112.106 135.836 111.528 135.5C110.949 135.154 110.487 134.688 110.142 134.1C109.806 133.502 109.638 132.826 109.638 132.07C109.638 131.323 109.806 130.656 110.142 130.068C110.478 129.48 110.93 129.018 111.5 128.682C112.078 128.336 112.732 128.164 113.46 128.164C114.188 128.164 114.836 128.332 115.406 128.668C115.984 129.004 116.437 129.466 116.764 130.054C117.1 130.642 117.268 131.314 117.268 132.07C117.268 132.835 117.095 133.516 116.75 134.114C116.404 134.702 115.942 135.164 115.364 135.5C114.794 135.836 114.16 136.004 113.46 136.004ZM113.46 134.954C113.964 134.954 114.416 134.828 114.818 134.576C115.228 134.324 115.55 133.978 115.784 133.54C116.026 133.101 116.148 132.611 116.148 132.07C116.148 131.528 116.026 131.043 115.784 130.614C115.55 130.184 115.228 129.844 114.818 129.592C114.416 129.34 113.964 129.214 113.46 129.214C112.956 129.214 112.498 129.34 112.088 129.592C111.686 129.844 111.364 130.184 111.122 130.614C110.879 131.043 110.758 131.528 110.758 132.07C110.758 132.611 110.879 133.101 111.122 133.54C111.364 133.978 111.686 134.324 112.088 134.576C112.498 134.828 112.956 134.954 113.46 134.954ZM121.29 136.004C120.814 136.004 120.389 135.915 120.016 135.738C119.642 135.551 119.348 135.299 119.134 134.982C118.919 134.664 118.812 134.3 118.812 133.89C118.812 133.498 118.896 133.143 119.064 132.826C119.232 132.499 119.493 132.224 119.848 132C120.202 131.776 120.655 131.617 121.206 131.524L124.146 131.034V131.986L121.458 132.434C120.916 132.527 120.524 132.7 120.282 132.952C120.048 133.204 119.932 133.502 119.932 133.848C119.932 134.184 120.062 134.468 120.324 134.702C120.594 134.935 120.94 135.052 121.36 135.052C121.873 135.052 122.321 134.944 122.704 134.73C123.086 134.506 123.385 134.207 123.6 133.834C123.814 133.46 123.922 133.045 123.922 132.588V130.684C123.922 130.236 123.758 129.872 123.432 129.592C123.105 129.312 122.68 129.172 122.158 129.172C121.7 129.172 121.299 129.288 120.954 129.522C120.608 129.746 120.352 130.04 120.184 130.404L119.232 129.886C119.372 129.568 119.591 129.279 119.89 129.018C120.198 128.756 120.548 128.551 120.94 128.402C121.332 128.243 121.738 128.164 122.158 128.164C122.708 128.164 123.194 128.271 123.614 128.486C124.043 128.7 124.374 128.999 124.608 129.382C124.85 129.755 124.972 130.189 124.972 130.684V135.836H123.922V134.338L124.076 134.492C123.945 134.772 123.74 135.028 123.46 135.262C123.189 135.486 122.867 135.668 122.494 135.808C122.13 135.938 121.728 136.004 121.29 136.004ZM130.519 136.004C129.819 136.004 129.189 135.836 128.629 135.5C128.069 135.154 127.626 134.688 127.299 134.1C126.982 133.502 126.823 132.83 126.823 132.084C126.823 131.328 126.982 130.656 127.299 130.068C127.626 129.48 128.065 129.018 128.615 128.682C129.175 128.336 129.81 128.164 130.519 128.164C131.163 128.164 131.737 128.304 132.241 128.584C132.745 128.864 133.142 129.242 133.431 129.718L133.263 130.012V125.238H134.313V135.836H133.263V134.156L133.431 134.31C133.17 134.851 132.778 135.271 132.255 135.57C131.742 135.859 131.163 136.004 130.519 136.004ZM130.575 134.954C131.079 134.954 131.532 134.828 131.933 134.576C132.344 134.324 132.666 133.983 132.899 133.554C133.142 133.115 133.263 132.625 133.263 132.084C133.263 131.542 133.142 131.057 132.899 130.628C132.666 130.189 132.344 129.844 131.933 129.592C131.532 129.34 131.079 129.214 130.575 129.214C130.081 129.214 129.633 129.34 129.231 129.592C128.83 129.844 128.513 130.184 128.279 130.614C128.055 131.043 127.943 131.533 127.943 132.084C127.943 132.625 128.055 133.115 128.279 133.554C128.513 133.983 128.825 134.324 129.217 134.576C129.619 134.828 130.071 134.954 130.575 134.954Z" fill="white"/>
<path d="M180.827 108.392C180.827 145.541 149.8 175.689 111.485 175.689C73.1709 175.689 42.1439 145.541 42.1439 108.392C42.1439 71.2419 73.1709 41.0936 111.485 41.0936C149.8 41.0936 180.827 71.2419 180.827 108.392Z" stroke="black" stroke-width="1.3"/>
<line x1="181.294" y1="108.537" x2="461.945" y2="108.537" stroke="black" stroke-width="1.3"/>
<rect x="241.208" y="72.4511" width="137.698" height="71.4307" rx="35.7153" fill="#FBF3FF"/>
<path d="M267.637 115.793C266.584 115.793 265.617 115.606 264.737 115.233C263.857 114.846 263.091 114.313 262.437 113.633C261.797 112.939 261.297 112.126 260.937 111.193C260.577 110.259 260.397 109.233 260.397 108.113C260.397 106.993 260.577 105.966 260.937 105.033C261.297 104.099 261.797 103.286 262.437 102.593C263.091 101.899 263.857 101.366 264.737 100.993C265.617 100.606 266.584 100.413 267.637 100.413C268.651 100.413 269.557 100.593 270.357 100.953C271.171 101.313 271.851 101.779 272.397 102.353C272.957 102.913 273.357 103.506 273.597 104.133L272.097 104.793C271.724 103.926 271.151 103.233 270.377 102.713C269.617 102.179 268.704 101.913 267.637 101.913C266.544 101.913 265.571 102.173 264.717 102.693C263.864 103.213 263.197 103.939 262.717 104.873C262.237 105.793 261.997 106.873 261.997 108.113C261.997 109.339 262.237 110.419 262.717 111.353C263.197 112.286 263.864 113.013 264.717 113.533C265.571 114.039 266.544 114.293 267.637 114.293C268.704 114.293 269.617 114.033 270.377 113.513C271.151 112.993 271.724 112.299 272.097 111.433L273.597 112.093C273.357 112.706 272.957 113.299 272.397 113.873C271.851 114.433 271.171 114.893 270.357 115.253C269.557 115.613 268.651 115.793 267.637 115.793ZM276.242 115.553V100.413H277.742V106.913L277.402 106.833C277.669 106.139 278.102 105.593 278.702 105.193C279.316 104.793 280.022 104.593 280.822 104.593C281.582 104.593 282.262 104.766 282.862 105.113C283.476 105.459 283.956 105.939 284.302 106.553C284.662 107.153 284.842 107.833 284.842 108.593V115.553H283.342V109.173C283.342 108.519 283.222 107.966 282.982 107.513C282.742 107.059 282.409 106.713 281.982 106.473C281.569 106.219 281.096 106.093 280.562 106.093C280.029 106.093 279.549 106.219 279.122 106.473C278.696 106.713 278.356 107.066 278.102 107.533C277.862 107.986 277.742 108.533 277.742 109.173V115.553H276.242ZM290.807 115.793C290.127 115.793 289.521 115.666 288.987 115.413C288.454 115.146 288.034 114.786 287.727 114.333C287.421 113.879 287.267 113.359 287.267 112.773C287.267 112.213 287.387 111.706 287.627 111.253C287.867 110.786 288.241 110.393 288.747 110.073C289.254 109.753 289.901 109.526 290.687 109.393L294.887 108.693V110.053L291.047 110.693C290.274 110.826 289.714 111.073 289.367 111.433C289.034 111.793 288.867 112.219 288.867 112.713C288.867 113.193 289.054 113.599 289.427 113.933C289.814 114.266 290.307 114.433 290.907 114.433C291.641 114.433 292.281 114.279 292.827 113.973C293.374 113.653 293.801 113.226 294.107 112.693C294.414 112.159 294.567 111.566 294.567 110.913V108.193C294.567 107.553 294.334 107.033 293.867 106.633C293.401 106.233 292.794 106.033 292.047 106.033C291.394 106.033 290.821 106.199 290.327 106.533C289.834 106.853 289.467 107.273 289.227 107.793L287.867 107.053C288.067 106.599 288.381 106.186 288.807 105.813C289.247 105.439 289.747 105.146 290.307 104.933C290.867 104.706 291.447 104.593 292.047 104.593C292.834 104.593 293.527 104.746 294.127 105.053C294.741 105.359 295.214 105.786 295.547 106.333C295.894 106.866 296.067 107.486 296.067 108.193V115.553H294.567V113.413L294.787 113.633C294.601 114.033 294.307 114.399 293.907 114.733C293.521 115.053 293.061 115.313 292.527 115.513C292.007 115.699 291.434 115.793 290.807 115.793ZM303.057 115.673C302.097 115.673 301.357 115.393 300.837 114.833C300.317 114.273 300.057 113.473 300.057 112.433V106.333H298.077V104.833H298.577C299.031 104.833 299.391 104.686 299.657 104.393C299.924 104.086 300.057 103.706 300.057 103.253V102.353H301.557V104.833H303.917V106.333H301.557V112.433C301.557 112.793 301.611 113.113 301.717 113.393C301.824 113.659 302.004 113.873 302.257 114.033C302.524 114.193 302.877 114.273 303.317 114.273C303.424 114.273 303.551 114.266 303.697 114.253C303.844 114.239 303.971 114.226 304.077 114.213V115.553C303.917 115.593 303.737 115.619 303.537 115.633C303.337 115.659 303.177 115.673 303.057 115.673ZM313.731 115.793C312.678 115.793 311.711 115.606 310.831 115.233C309.951 114.846 309.184 114.313 308.531 113.633C307.891 112.939 307.391 112.126 307.031 111.193C306.671 110.259 306.491 109.233 306.491 108.113C306.491 106.993 306.671 105.966 307.031 105.033C307.391 104.099 307.891 103.286 308.531 102.593C309.184 101.899 309.951 101.366 310.831 100.993C311.711 100.606 312.678 100.413 313.731 100.413C314.744 100.413 315.651 100.593 316.451 100.953C317.264 101.313 317.944 101.779 318.491 102.353C319.051 102.913 319.451 103.506 319.691 104.133L318.251 104.833C317.878 103.926 317.304 103.213 316.531 102.693C315.758 102.173 314.824 101.913 313.731 101.913C312.638 101.913 311.664 102.173 310.811 102.693C309.958 103.213 309.291 103.939 308.811 104.873C308.331 105.793 308.091 106.873 308.091 108.113C308.091 109.339 308.331 110.419 308.811 111.353C309.291 112.286 309.958 113.013 310.811 113.533C311.664 114.039 312.638 114.293 313.731 114.293C314.704 114.293 315.578 114.079 316.351 113.653C317.138 113.226 317.758 112.646 318.211 111.913C318.664 111.166 318.891 110.313 318.891 109.353V108.533L319.611 109.253H313.731V107.853H320.491V109.093C320.491 110.066 320.318 110.966 319.971 111.793C319.624 112.606 319.144 113.313 318.531 113.913C317.918 114.513 317.198 114.979 316.371 115.313C315.558 115.633 314.678 115.793 313.731 115.793ZM323.357 115.553V100.653H328.477C329.45 100.653 330.304 100.846 331.037 101.233C331.77 101.606 332.337 102.139 332.737 102.833C333.15 103.513 333.357 104.306 333.357 105.213C333.357 106.119 333.15 106.913 332.737 107.593C332.337 108.273 331.77 108.806 331.037 109.193C330.317 109.566 329.464 109.753 328.477 109.753H324.957V115.553H323.357ZM324.957 108.253H328.557C329.197 108.253 329.757 108.133 330.237 107.893C330.717 107.639 331.09 107.286 331.357 106.833C331.624 106.366 331.757 105.819 331.757 105.193C331.757 104.566 331.624 104.026 331.357 103.573C331.09 103.119 330.717 102.773 330.237 102.533C329.757 102.279 329.197 102.153 328.557 102.153H324.957V108.253ZM338.788 115.553V102.153H334.668V100.653H344.468V102.153H340.388V115.553H338.788Z" fill="#193718"/>
</svg>
