<svg width="29" height="23" viewBox="0 0 29 23" fill="none" xmlns="http://www.w3.org/2000/svg">
<path d="M21.25 22H28V19.375C28 17.2004 26.1868 15.4375 23.95 15.4375C22.6599 15.4375 21.5107 16.0239 20.7691 16.9375M21.25 22H7.75M21.25 22V19.375C21.25 18.5137 21.0793 17.6911 20.7691 16.9375M7.75 22H1V19.375C1 17.2004 2.81325 15.4375 5.05 15.4375C6.34007 15.4375 7.48926 16.0239 8.23093 16.9375M7.75 22V19.375C7.75 18.5137 7.92067 17.6911 8.23093 16.9375M8.23093 16.9375C9.22623 14.5201 11.658 12.8125 14.5 12.8125C17.342 12.8125 19.7738 14.5201 20.7691 16.9375M18.55 4.9375C18.55 7.11212 16.7368 8.875 14.5 8.875C12.2632 8.875 10.45 7.11212 10.45 4.9375C10.45 2.76288 12.2632 1 14.5 1C16.7368 1 18.55 2.76288 18.55 4.9375ZM26.65 8.875C26.65 10.3247 25.4412 11.5 23.95 11.5C22.4588 11.5 21.25 10.3247 21.25 8.875C21.25 7.42525 22.4588 6.25 23.95 6.25C25.4412 6.25 26.65 7.42525 26.65 8.875ZM7.75 8.875C7.75 10.3247 6.54117 11.5 5.05 11.5C3.55883 11.5 2.35 10.3247 2.35 8.875C2.35 7.42525 3.55883 6.25 5.05 6.25C6.54117 6.25 7.75 7.42525 7.75 8.875Z" stroke="#9029E2" stroke-width="1.3" stroke-linecap="round" stroke-linejoin="round"/>
</svg>
