<svg width="29" height="29" viewBox="0 0 29 29" fill="none" xmlns="http://www.w3.org/2000/svg">
<path d="M25 28.2188V4.21875C25 2.5619 23.6569 1.21875 22 1.21875H7C5.34315 1.21875 4 2.5619 4 4.21875V28.2188M25 28.2188L28 28.2187M25 28.2188H17.5M4 28.2188L1 28.2187M4 28.2188H11.5M10 7.21872H11.5M10 13.2187H11.5M17.5 7.21872H19M17.5 13.2187H19M11.5 28.2188V20.7187C11.5 19.8903 12.1716 19.2187 13 19.2187H16C16.8284 19.2187 17.5 19.8903 17.5 20.7187V28.2188M11.5 28.2188H17.5" stroke="#9029E2" stroke-width="1.5" stroke-linecap="round" stroke-linejoin="round"/>
</svg>
