<svg width="23" height="30" viewBox="0 0 23 30" fill="none" xmlns="http://www.w3.org/2000/svg">
<path d="M7 4.71875H4C2.34315 4.71875 1 6.0619 1 7.71875V25.7188C1 27.3756 2.34315 28.7188 4 28.7188H19C20.6569 28.7188 22 27.3756 22 25.7188V7.71875C22 6.0619 20.6569 4.71875 19 4.71875H16M7 4.71875C7 6.3756 8.34315 7.71875 10 7.71875H13C14.6569 7.71875 16 6.3756 16 4.71875M7 4.71875C7 3.0619 8.34315 1.71875 10 1.71875H13C14.6569 1.71875 16 3.0619 16 4.71875M11.5 15.2188H16M11.5 21.2188H16M7 15.2188H7.015M7 21.2188H7.015" stroke="#9029E2" stroke-width="1.5" stroke-linecap="round"/>
</svg>
