<svg width="41" height="39" viewBox="0 0 41 39" fill="none" xmlns="http://www.w3.org/2000/svg">
<path d="M22.168 27.625C22.168 24.5609 22.168 23.0288 23.1443 22.0769C24.1206 21.125 25.6919 21.125 28.8346 21.125H30.5013C33.644 21.125 35.2153 21.125 36.1917 22.0769C37.168 23.0288 37.168 24.5609 37.168 27.625C37.168 30.6891 37.168 32.2212 36.1917 33.1731C35.2153 34.125 33.644 34.125 30.5013 34.125H28.8346C25.6919 34.125 24.1206 34.125 23.1443 33.1731C22.168 32.2212 22.168 30.6891 22.168 27.625Z" stroke="#9029E2" stroke-width="1.5"/>
<path d="M13.0013 12.1875V17.0625M13.0013 12.1875H18.0013M13.0013 12.1875L19.668 18.6875" stroke="#9029E2" stroke-width="1.5" stroke-linecap="round" stroke-linejoin="round"/>
<path d="M18.832 34.125H17.1654C10.88 34.125 7.73727 34.125 5.78465 32.2212C3.83203 30.3174 3.83203 27.2533 3.83203 21.125V17.875M37.1654 17.875C37.1654 11.7467 37.1654 8.68261 35.2127 6.77881C33.2601 4.875 30.1174 4.875 23.832 4.875H17.1654C10.88 4.875 7.73727 4.875 5.78465 6.77881C4.69602 7.84023 4.21432 9.26232 4.00119 11.375" stroke="#9029E2" stroke-width="1.5" stroke-linecap="round"/>
</svg>
