<svg width="22" height="23" viewBox="0 0 22 23" fill="none" xmlns="http://www.w3.org/2000/svg">
<path d="M17.0814 14.8645C15.972 18.1925 15.4174 19.8566 14.604 20.3294C13.8302 20.7793 12.8745 20.7793 12.1007 20.3294C11.2873 19.8566 10.7326 18.1925 9.62325 14.8645C9.44513 14.3301 9.35606 14.0629 9.20655 13.8396C9.06166 13.6231 8.87574 13.4372 8.6593 13.2923C8.43597 13.1428 8.16878 13.0537 7.63441 12.8756C4.30633 11.7663 2.64229 11.2116 2.16942 10.3982C1.71957 9.62438 1.71957 8.66869 2.16942 7.8949C2.64229 7.0815 4.30633 6.52682 7.63441 5.41746M18.3556 11.0418L18.6548 10.1442C20.0293 6.02071 20.7166 3.95895 19.6282 2.87062C18.5399 1.78229 16.4782 2.46954 12.3546 3.84405L11.3863 4.16683" stroke="black" stroke-width="1.5" stroke-linecap="round"/>
<path d="M16.3089 6.19315L12.4492 10.0103" stroke="black" stroke-width="1.5" stroke-linecap="round"/>
</svg>
