<svg width="22" height="22" viewBox="0 0 22 22" fill="none" xmlns="http://www.w3.org/2000/svg">
<path d="M1 2.25C1 1.55964 1.55964 1 2.25 1H19.75C20.4404 1 21 1.55964 21 2.25V4.75C21 5.44036 20.4404 6 19.75 6H2.25C1.55964 6 1 5.44036 1 4.75V2.25Z" stroke="black" stroke-width="1.3" stroke-linecap="round" stroke-linejoin="round"/>
<path d="M1 12.25C1 11.5596 1.55964 11 2.25 11H9.75C10.4404 11 11 11.5596 11 12.25V19.75C11 20.4404 10.4404 21 9.75 21H2.25C1.55964 21 1 20.4404 1 19.75V12.25Z" stroke="black" stroke-width="1.3" stroke-linecap="round" stroke-linejoin="round"/>
<path d="M16 12.25C16 11.5596 16.5596 11 17.25 11H19.75C20.4404 11 21 11.5596 21 12.25V19.75C21 20.4404 20.4404 21 19.75 21H17.25C16.5596 21 16 20.4404 16 19.75V12.25Z" stroke="black" stroke-width="1.3" stroke-linecap="round" stroke-linejoin="round"/>
</svg>
