<svg width="21" height="22" viewBox="0 0 21 22" fill="none" xmlns="http://www.w3.org/2000/svg">
<g clip-path="url(#clip0_248_1373)">
<path d="M0 11C0 15.5146 2.84944 19.3633 6.84776 20.8469L7.76085 11L6.84776 1.15309C2.84944 2.63671 0 6.48537 0 11Z" fill="#6DA544"/>
<path d="M21 11C21 5.20105 16.299 0.5 10.5 0.5C9.21565 0.5 7.98531 0.731041 6.84778 1.15309V20.8469C7.98531 21.269 9.21565 21.5 10.5 21.5C16.299 21.5 21 16.799 21 11Z" fill="#D80027"/>
<path d="M6.84783 14.6522C8.86486 14.6522 10.5 13.017 10.5 11C10.5 8.98297 8.86486 7.34785 6.84783 7.34785C4.8308 7.34785 3.19568 8.98297 3.19568 11C3.19568 13.017 4.8308 14.6522 6.84783 14.6522Z" fill="#FFDA44"/>
<path d="M4.79352 9.1739V11.4565C4.79352 12.5911 5.71325 13.5109 6.84787 13.5109C7.98248 13.5109 8.90222 12.5911 8.90222 11.4565V9.1739H4.79352Z" fill="#D80027"/>
<path d="M6.84782 12.1413C6.47023 12.1413 6.16302 11.8341 6.16302 11.4565V10.5435H7.53258V11.4565C7.53258 11.8341 7.22537 12.1413 6.84782 12.1413Z" fill="#F0F0F0"/>
</g>
<defs>
<clipPath id="clip0_248_1373">
<rect width="21" height="21" fill="white" transform="translate(0 0.5)"/>
</clipPath>
</defs>
</svg>
