<svg width="21" height="22" viewBox="0 0 21 22" fill="none" xmlns="http://www.w3.org/2000/svg">
<g clip-path="url(#clip0_248_1403)">
<path d="M10.5 21.5C16.299 21.5 21 16.799 21 11C21 5.20101 16.299 0.5 10.5 0.5C4.70101 0.5 0 5.20101 0 11C0 16.799 4.70101 21.5 10.5 21.5Z" fill="#F0F0F0"/>
<path d="M10.5 21.5C16.299 21.5 21 16.7989 21 11C21 9.71563 20.769 8.48528 20.3469 7.34784H0.653092C0.231041 8.48528 0 9.71563 0 11C0 16.7989 4.70105 21.5 10.5 21.5Z" fill="#0052B4"/>
<path d="M10.5 21.5C15.0146 21.5 18.8633 18.6506 20.3469 14.6522H0.653076C2.13665 18.6506 5.98535 21.5 10.5 21.5Z" fill="#D80027"/>
<path d="M2.71515 6.4348V11.6727C2.71515 14.6523 6.60757 15.5652 6.60757 15.5652C6.60757 15.5652 10.5 14.6523 10.5 11.6727V6.4348H2.71515Z" fill="#F0F0F0"/>
<path d="M3.62817 6.4348V11.6727C3.62817 12.0225 3.70586 12.3529 3.85975 12.6626H9.35531C9.5092 12.3529 9.58688 12.0225 9.58688 11.6727V6.4348H3.62817Z" fill="#D80027"/>
<path d="M8.43365 10.0869H7.06414V9.1739H7.97719V8.26085H7.06414V7.34784H6.15109V8.26085H5.23808V9.1739H6.15109V10.0869H4.78149V11H6.15109V11.913H7.06414V11H8.43365V10.0869Z" fill="#F0F0F0"/>
<path d="M5.10528 13.9371C5.69365 14.3069 6.29814 14.5216 6.6076 14.617C6.91706 14.5216 7.52155 14.3069 8.10992 13.9371C8.70325 13.5642 9.11919 13.1377 9.35536 12.6626C9.09487 12.4783 8.77704 12.3696 8.4337 12.3696C8.30868 12.3696 8.18724 12.3844 8.07047 12.4116C7.82302 11.8493 7.26131 11.4565 6.60764 11.4565C5.95398 11.4565 5.39223 11.8493 5.14482 12.4116C5.02805 12.3844 4.90656 12.3696 4.78159 12.3696C4.43824 12.3696 4.12041 12.4783 3.85992 12.6626C4.09597 13.1377 4.51191 13.5642 5.10528 13.9371Z" fill="#0052B4"/>
</g>
<defs>
<clipPath id="clip0_248_1403">
<rect width="21" height="21" fill="white" transform="translate(0 0.5)"/>
</clipPath>
</defs>
</svg>
