<svg width="21" height="22" viewBox="0 0 21 22" fill="none" xmlns="http://www.w3.org/2000/svg">
<g clip-path="url(#clip0_248_1358)">
<path d="M0 11C0 12.2844 0.231041 13.5147 0.653092 14.6522L10.5 15.5652L20.3469 14.6522C20.769 13.5147 21 12.2844 21 11C21 9.71564 20.769 8.48533 20.3469 7.34784L10.5 6.4348L0.653092 7.34784C0.231041 8.48533 0 9.71564 0 11H0Z" fill="#FFDA44"/>
<path d="M20.3469 7.34785C18.8633 3.34948 15.0146 0.5 10.5 0.5C5.98535 0.5 2.13665 3.34948 0.653076 7.34785H20.3469Z" fill="#D80027"/>
<path d="M0.653076 14.6522C2.13665 18.6505 5.98535 21.5 10.5 21.5C15.0146 21.5 18.8633 18.6505 20.3469 14.6522H0.653076Z" fill="#D80027"/>
</g>
<defs>
<clipPath id="clip0_248_1358">
<rect width="21" height="21" fill="white" transform="translate(0 0.5)"/>
</clipPath>
</defs>
</svg>
