<svg width="22" height="22" viewBox="0 0 22 22" fill="none" xmlns="http://www.w3.org/2000/svg">
<g clip-path="url(#clip0_248_1338)">
<path d="M11 0.5C5.20101 0.5 0.5 5.20101 0.5 11C0.5 16.799 5.20101 21.5 11 21.5C16.799 21.5 21.5 16.799 21.5 11C21.5 5.20101 16.799 0.5 11 0.5Z" fill="#F0F0F0"/>
<path d="M19.3295 17.3926C20.1543 16.3195 20.7762 15.0827 21.1383 13.7391H15.6759L19.3295 17.3926Z" fill="#0052B4"/>
<path d="M0.8618 13.7391C1.22393 15.0827 1.84589 16.3195 2.67063 17.3926L6.3241 13.7391H0.8618Z" fill="#0052B4"/>
<path d="M21.1383 8.26081C20.7761 6.91722 20.1542 5.68039 19.3295 4.60734L15.676 8.26081H21.1383Z" fill="#0052B4"/>
<path d="M4.60736 19.3294C5.68045 20.1542 6.91723 20.7761 8.26086 21.1383V15.6759L4.60736 19.3294Z" fill="#0052B4"/>
<path d="M17.3926 2.67059C16.3195 1.8458 15.0827 1.22388 13.7391 0.861716V6.32401L17.3926 2.67059Z" fill="#0052B4"/>
<path d="M13.7391 21.1383C15.0827 20.7761 16.3195 20.1542 17.3926 19.3295L13.7391 15.676V21.1383Z" fill="#0052B4"/>
<path d="M8.26086 0.861716C6.91727 1.22388 5.68045 1.8458 4.6074 2.67055L8.26086 6.32401V0.861716Z" fill="#0052B4"/>
<path d="M6.3241 8.26081L2.67063 4.6073C1.84589 5.68035 1.22393 6.91722 0.8618 8.26081H6.3241Z" fill="#0052B4"/>
<path d="M0.588881 12.3696H9.63037H9.63041V21.4111C10.0787 21.4695 10.5358 21.5 11 21.5C11.4643 21.5 11.9213 21.4695 12.3696 21.4111V12.3696V12.3696H21.4111C21.4695 11.9213 21.5 11.4642 21.5 11C21.5 10.5357 21.4695 10.0787 21.4111 9.63045H12.3696H12.3696V0.588881C11.9213 0.530516 11.4643 0.5 11 0.5C10.5358 0.5 10.0787 0.530474 9.63045 0.588881V9.63037V9.63041H0.588881C0.530516 10.0787 0.5 10.5357 0.5 11C0.5 11.4642 0.530516 11.9213 0.588881 12.3696Z" fill="#D80027"/>
<path d="M8.26086 8.26081L3.5754 3.57535C3.35991 3.79077 3.15434 4.01598 2.9582 4.24944L6.96961 8.26085H8.26086V8.26081Z" fill="#D80027"/>
<path d="M13.7392 8.26081H13.7393L18.4247 3.57539C18.2093 3.35989 17.9841 3.15433 17.7506 2.95819L13.7392 6.96968V8.26081Z" fill="#D80027"/>
<path d="M13.7392 13.7391V13.7391L18.4247 18.4246C18.6402 18.2092 18.8457 17.984 19.0419 17.7506L15.0304 13.7391H13.7392V13.7391Z" fill="#D80027"/>
<path d="M8.26086 13.7391L3.57536 18.4246C3.79078 18.6401 4.01599 18.8457 4.24945 19.0418L8.26086 15.0303V13.7391Z" fill="#D80027"/>
</g>
<defs>
<clipPath id="clip0_248_1338">
<rect width="21" height="21" fill="white" transform="matrix(-1 0 0 -1 21.5 21.5)"/>
</clipPath>
</defs>
</svg>
