<svg width="21" height="22" viewBox="0 0 21 22" fill="none" xmlns="http://www.w3.org/2000/svg">
<g clip-path="url(#clip0_248_1393)">
<path d="M10.5 21.5C16.299 21.5 21 16.799 21 11C21 5.20101 16.299 0.5 10.5 0.5C4.70101 0.5 0 5.20101 0 11C0 16.799 4.70101 21.5 10.5 21.5Z" fill="#F0F0F0"/>
<path d="M9.58692 11C9.58692 11 3.08147 18.4261 3.07532 18.4246C4.97541 20.3247 7.60045 21.5 10.5 21.5C16.2989 21.5 21 16.799 21 11H9.58692Z" fill="#D80027"/>
<path d="M3.07537 3.57535C-1.02512 7.67584 -1.02512 14.3241 3.07537 18.4246C4.76985 16.7302 6.39952 15.1005 10.5 11L3.07537 3.57535Z" fill="#0052B4"/>
</g>
<defs>
<clipPath id="clip0_248_1393">
<rect width="21" height="21" fill="white" transform="translate(0 0.5)"/>
</clipPath>
</defs>
</svg>
