<svg width="21" height="22" viewBox="0 0 21 22" fill="none" xmlns="http://www.w3.org/2000/svg">
<g clip-path="url(#clip0_248_1348)">
<path d="M10.5 21.5C16.299 21.5 21 16.799 21 11C21 5.20101 16.299 0.5 10.5 0.5C4.70101 0.5 0 5.20101 0 11C0 16.799 4.70101 21.5 10.5 21.5Z" fill="#F0F0F0"/>
<path d="M21 11C21 6.48537 18.1506 2.63667 14.1522 1.15309V20.8469C18.1506 19.3633 21 15.5146 21 11Z" fill="#D80027"/>
<path d="M0 11C0 15.5146 2.84948 19.3633 6.84785 20.8469V1.15309C2.84948 2.63667 0 6.48537 0 11Z" fill="#0052B4"/>
</g>
<defs>
<clipPath id="clip0_248_1348">
<rect width="21" height="21" fill="white" transform="translate(0 0.5)"/>
</clipPath>
</defs>
</svg>
