<svg width="22" height="22" viewBox="0 0 22 22" fill="none" xmlns="http://www.w3.org/2000/svg">
<g clip-path="url(#clip0_248_1343)">
<path d="M1.15308 14.6522C2.63665 18.6505 6.48535 21.5 11 21.5C15.5146 21.5 19.3633 18.6505 20.8469 14.6522L11 13.7391L1.15308 14.6522Z" fill="#FFDA44"/>
<path d="M11 0.5C6.48535 0.5 2.63665 3.34944 1.15308 7.34785L11 8.26085L20.8469 7.3478C19.3633 3.34944 15.5146 0.5 11 0.5Z" fill="black"/>
<path d="M1.15309 7.34785C0.731041 8.48533 0.5 9.71564 0.5 11C0.5 12.2844 0.731041 13.5147 1.15309 14.6522H20.8469C21.269 13.5147 21.5 12.2844 21.5 11C21.5 9.71564 21.269 8.48533 20.8469 7.34785H1.15309Z" fill="#D80027"/>
</g>
<defs>
<clipPath id="clip0_248_1343">
<rect width="21" height="21" fill="white" transform="translate(0.5 0.5)"/>
</clipPath>
</defs>
</svg>
