<svg width="22" height="22" viewBox="0 0 22 22" fill="none" xmlns="http://www.w3.org/2000/svg">
<g clip-path="url(#clip0_248_1383)">
<path d="M11 21.5C16.799 21.5 21.5 16.799 21.5 11C21.5 5.20101 16.799 0.5 11 0.5C5.20101 0.5 0.5 5.20101 0.5 11C0.5 16.799 5.20101 21.5 11 21.5Z" fill="#F0F0F0"/>
<path d="M11 8.26085H21.1383C20.875 7.28411 20.4749 6.36367 19.9589 5.52171H11V8.26085Z" fill="#338AF3"/>
<path d="M4.46389 19.2174H17.5361C18.4944 18.4542 19.3161 17.5271 19.9589 16.4783H2.04114C2.68389 17.5271 3.50568 18.4542 4.46389 19.2174Z" fill="#338AF3"/>
<path d="M4.15217 3.04047C3.32669 3.75131 2.61306 4.5884 2.04114 5.52175H4.15217V3.04047Z" fill="#338AF3"/>
<path d="M11 11C11 9.93048 11 9.03539 11 8.26085H6.8913V11H4.15215V8.26085H0.861717C0.626328 9.13424 0.5 10.0523 0.5 11C0.5 11.9477 0.626328 12.8658 0.861717 13.7391H21.1383C21.3737 12.8658 21.5 11.9477 21.5 11H11Z" fill="#338AF3"/>
<path d="M11 0.5C9.54193 0.5 8.15335 0.797486 6.8913 1.33459V5.52175H11C11 4.56559 11 3.75237 11 2.7826H17.5361C15.7425 1.35411 13.4711 0.5 11 0.5Z" fill="#338AF3"/>
</g>
<defs>
<clipPath id="clip0_248_1383">
<rect width="21" height="21" fill="white" transform="translate(0.5 0.5)"/>
</clipPath>
</defs>
</svg>
