<svg width="22" height="22" viewBox="0 0 22 22" fill="none" xmlns="http://www.w3.org/2000/svg">
<g clip-path="url(#clip0_248_1368)">
<path d="M14.6522 1.15305C13.5146 0.731041 12.2844 0.5 11 0.5C9.71565 0.499959 8.48535 0.731041 7.34786 1.15305L6.43481 11L7.34786 20.8469C8.48531 21.269 9.71561 21.5 11 21.5C12.2843 21.5 13.5147 21.269 14.6522 20.8469L15.5652 11L14.6522 1.15305Z" fill="#FFDA44"/>
<path d="M21.4999 11C21.4999 6.48541 18.6505 2.63663 14.6521 1.15309V20.847C18.6505 19.3633 21.4999 15.5147 21.4999 11Z" fill="#D80027"/>
<path d="M0.5 11C0.5 15.5147 3.34944 19.3633 7.34776 20.8469L7.3478 1.15313C3.34944 2.63667 0.5 6.48533 0.5 11H0.5Z" fill="#0052B4"/>
</g>
<defs>
<clipPath id="clip0_248_1368">
<rect width="21" height="21" fill="white" transform="translate(0.5 0.5)"/>
</clipPath>
</defs>
</svg>
