<svg width="22" height="22" viewBox="0 0 22 22" fill="none" xmlns="http://www.w3.org/2000/svg">
<g clip-path="url(#clip0_248_1398)">
<path d="M21.5 11C21.5 9.71563 21.269 8.48529 20.8469 7.34784L11 6.8913L1.15309 7.3478C0.731041 8.48529 0.5 9.71563 0.5 11C0.5 12.2844 0.731041 13.5147 1.15309 14.6521L11 15.1087L20.8469 14.6522C21.269 13.5147 21.5 12.2844 21.5 11Z" fill="#496E2D"/>
<path d="M11 21.5C15.5146 21.5 19.3633 18.6506 20.8469 14.6522H1.15308C2.63665 18.6506 6.48535 21.5 11 21.5Z" fill="#D80027"/>
<path d="M1.15308 7.34785H20.8469C19.3633 3.34944 15.5146 0.5 11 0.5C6.48535 0.5 2.63665 3.34944 1.15308 7.34785Z" fill="#F0F0F0"/>
</g>
<defs>
<clipPath id="clip0_248_1398">
<rect width="21" height="21" fill="white" transform="translate(0.5 0.5)"/>
</clipPath>
</defs>
</svg>
