<?xml version="1.0" encoding="UTF-8"?>
<svg xmlns="http://www.w3.org/2000/svg" xmlns:xlink="http://www.w3.org/1999/xlink" width="22px" height="22px" viewBox="0 0 22 22" version="1.1">
<g id="surface1">
<path style=" stroke:none;fill-rule:nonzero;fill:rgb(12.941176%,27.45098%,54.509804%);fill-opacity:1;" d="M 21.992188 11 C 21.992188 12.25 21.78125 13.492188 21.363281 14.671875 C 19.851562 18.9375 15.78125 21.992188 11 21.992188 C 6.21875 21.992188 2.148438 18.9375 0.636719 14.671875 C -0.199219 12.300781 -0.199219 9.714844 0.632812 7.339844 C 2.140625 3.070312 6.214844 0.0078125 11 0.0078125 C 15.785156 0.0078125 19.859375 3.070312 21.367188 7.339844 C 21.78125 8.515625 21.992188 9.753906 21.992188 11 Z M 21.992188 11 "/>
<path style=" stroke:none;fill-rule:nonzero;fill:rgb(94.117647%,94.117647%,94.117647%);fill-opacity:1;" d="M 21.992188 11 C 21.992188 12.25 21.78125 13.492188 21.363281 14.671875 L 0.636719 14.671875 C -0.199219 12.300781 -0.199219 9.714844 0.632812 7.339844 C 2.140625 3.070312 6.214844 0.0078125 11 0.0078125 C 15.785156 0.0078125 19.859375 3.070312 21.367188 7.339844 C 21.78125 8.515625 21.992188 9.753906 21.992188 11 Z M 21.992188 11 "/>
<path style=" stroke:none;fill-rule:nonzero;fill:rgb(68.235294%,10.980392%,15.686275%);fill-opacity:1;" d="M 21.367188 7.339844 L 0.632812 7.339844 C 2.140625 3.070312 6.214844 0.0078125 11 0.0078125 C 15.785156 0.0078125 19.859375 3.070312 21.367188 7.339844 Z M 21.367188 7.339844 "/>
<path style="fill:none;stroke-width:0.5;stroke-linecap:round;stroke-linejoin:miter;stroke:rgb(11.372549%,11.372549%,10.588235%);stroke-opacity:1;stroke-miterlimit:10;" d="M 599.941875 300.08 C 599.941875 334.18 594.1875 368.066875 582.785312 400.24875 C 541.545625 516.615 430.5075 599.946875 300.075 599.946875 C 169.6425 599.946875 58.604375 516.615 17.364688 400.24875 C -5.439687 335.565312 -5.439687 265.020938 17.258125 200.230937 C 58.39125 83.758125 169.535938 0.213125 300.075 0.213125 C 430.614062 0.213125 541.75875 83.758125 582.891875 200.230937 C 594.1875 232.30625 599.941875 266.086562 599.941875 300.08 Z M 599.941875 300.08 " transform="matrix(0.0366569,0,0,0.0366569,0.000183284,0)"/>
</g>
</svg>
