<svg width="21" height="22" viewBox="0 0 21 22" fill="none" xmlns="http://www.w3.org/2000/svg">
<g clip-path="url(#clip0_248_1408)">
<path d="M10.5 21.5C16.299 21.5 21 16.799 21 11C21 5.20101 16.299 0.5 10.5 0.5C4.70101 0.5 0 5.20101 0 11C0 16.799 4.70101 21.5 10.5 21.5Z" fill="#F0F0F0"/>
<path d="M20.3469 14.6521C20.769 13.5147 21 12.2844 21 11C21 9.71563 20.769 8.48533 20.3469 7.34784H0.653092C0.231041 8.48533 0 9.71563 0 11C0 12.2844 0.231041 13.5147 0.653092 14.6521L10.5 15.5652L20.3469 14.6521Z" fill="#0052B4"/>
<path d="M10.5 21.5C15.0146 21.5 18.8633 18.6506 20.3469 14.6522H0.653076C2.13665 18.6506 5.98535 21.5 10.5 21.5Z" fill="#D80027"/>
</g>
<defs>
<clipPath id="clip0_248_1408">
<rect width="21" height="21" fill="white" transform="translate(0 0.5)"/>
</clipPath>
</defs>
</svg>
