<svg width="21" height="20" viewBox="0 0 21 20" fill="none" xmlns="http://www.w3.org/2000/svg">
<path fill-rule="evenodd" clip-rule="evenodd" d="M0.761418 0.46967C1.05431 0.176777 1.52918 0.176777 1.82208 0.46967L4.99573 3.64332C6.5595 2.75637 8.36763 2.25 10.2922 2.25C15.1068 2.25 19.1803 5.41457 20.5499 9.7753C20.5959 9.9216 20.5959 10.0785 20.5499 10.2248C19.8838 12.3457 18.5791 14.182 16.8619 15.5095L19.8221 18.4697C20.115 18.7626 20.115 19.2374 19.8221 19.5303C19.5292 19.8232 19.0543 19.8232 18.7614 19.5303L0.761418 1.53033C0.468525 1.23744 0.468524 0.762563 0.761418 0.46967ZM6.10299 4.75059L8.22379 6.87138C8.81649 6.479 9.52776 6.25 10.2917 6.25C12.3628 6.25 14.0417 7.92893 14.0417 10C14.0417 10.764 13.8127 11.4753 13.4204 12.068L15.7912 14.4388C17.2839 13.3334 18.4317 11.7899 19.0451 10C17.7989 6.36312 14.3498 3.75 10.2922 3.75C8.78331 3.75 7.36023 4.11076 6.10299 4.75059ZM12.3226 10.9702C12.4632 10.6765 12.5417 10.3476 12.5417 10C12.5417 8.75736 11.5344 7.75 10.2917 7.75C9.94411 7.75 9.61526 7.82853 9.32154 7.96914L12.3226 10.9702ZM2.76577 6.37313C3.09606 6.62309 3.16119 7.09347 2.91123 7.42377C2.32594 8.19718 1.85971 9.06498 1.53932 9.99997C2.78547 13.6369 6.23462 16.25 10.2922 16.25C10.8857 16.25 11.4656 16.1942 12.0269 16.0877C12.4338 16.0106 12.8263 16.2779 12.9035 16.6849C12.9807 17.0918 12.7133 17.4843 12.3063 17.5615C11.6534 17.6853 10.98 17.75 10.2922 17.75C5.4776 17.75 1.40407 14.5854 0.0344622 10.2247C-0.011488 10.0784 -0.0114874 9.92153 0.0344638 9.77523C0.407622 8.58715 0.981202 7.48841 1.71513 6.5186C1.96509 6.1883 2.43547 6.12317 2.76577 6.37313Z" fill="black"/>
</svg>
