<svg width="26" height="26" viewBox="0 0 26 26" fill="none" xmlns="http://www.w3.org/2000/svg">
<path d="M25.9272 7.63971C25.8648 6.2554 25.6411 5.30825 25.3239 4.48078C24.991 3.6273 24.5489 2.89872 23.826 2.18054C23.1031 1.46237 22.3801 1.00961 21.5272 0.681745C20.7002 0.359087 19.7536 0.140512 18.3702 0.0780625C16.9815 0.0156125 16.5394 0 13.0131 0C9.48166 0 9.03958 0.0156125 7.65612 0.0780625C6.27266 0.140512 5.32608 0.364291 4.49912 0.681745C3.64096 1.01481 2.91282 1.45717 2.19508 2.18054C1.47735 2.90392 1.02486 3.6273 0.697198 4.48078C0.379938 5.30825 0.156296 6.2554 0.0938839 7.63971C0.0314721 9.02922 0.0158691 9.47158 0.0158691 13C0.0158691 16.5336 0.0314721 16.976 0.0938839 18.3603C0.156296 19.7446 0.379938 20.6918 0.697198 21.5192C1.03006 22.3727 1.47215 23.1013 2.19508 23.8195C2.91282 24.5428 3.64096 24.9904 4.49392 25.3183C5.32088 25.6409 6.26746 25.8595 7.65092 25.9219C9.03958 25.9844 9.48167 26 13.0079 26C16.5394 26 16.9815 25.9844 18.365 25.9219C19.7484 25.8595 20.695 25.6357 21.5219 25.3183C22.3749 24.9852 23.1031 24.5428 23.8208 23.8195C24.5385 23.0961 24.991 22.3727 25.3187 21.5192C25.6411 20.6918 25.8596 19.7446 25.922 18.3603C25.9844 16.9708 26 16.5284 26 13C26 9.47158 25.9896 9.02402 25.9272 7.63971ZM23.5919 18.2562C23.5347 19.526 23.3215 20.2182 23.1447 20.6709C22.9106 21.2746 22.6246 21.7118 22.1669 22.1697C21.7092 22.6277 21.2775 22.9035 20.669 23.1481C20.2113 23.3251 19.5196 23.5384 18.2557 23.5957C16.8879 23.6581 16.477 23.6737 13.0027 23.6737C9.52847 23.6737 9.1176 23.6581 7.74974 23.5957C6.4807 23.5384 5.78896 23.3251 5.33648 23.1481C4.73316 22.9139 4.29628 22.6277 3.83859 22.1697C3.38091 21.7118 3.10526 21.2798 2.86081 20.6709C2.68398 20.213 2.47074 19.5208 2.41352 18.2562C2.35111 16.8875 2.33551 16.4764 2.33551 13C2.33551 9.52362 2.35111 9.11249 2.41352 7.7438C2.47074 6.47398 2.68398 5.78183 2.86081 5.32906C3.09485 4.72538 3.38091 4.28823 3.83859 3.83026C4.29628 3.3723 4.72796 3.09648 5.33648 2.85188C5.79417 2.67494 6.4859 2.46157 7.74974 2.40432C9.1176 2.34187 9.52847 2.32626 13.0027 2.32626C16.477 2.32626 16.8879 2.34187 18.2557 2.40432C19.5248 2.46157 20.2165 2.67494 20.669 2.85188C21.2723 3.08607 21.7092 3.3723 22.1669 3.83026C22.6246 4.28823 22.9002 4.72018 23.1447 5.32906C23.3215 5.78703 23.5347 6.47918 23.5919 7.7438C23.6544 9.11249 23.67 9.52362 23.67 13C23.67 16.4764 23.6492 16.8875 23.5919 18.2562Z" fill="black"/>
<path d="M13.0024 6.31787C9.30968 6.31787 6.32431 9.31026 6.32431 13C6.32431 16.695 9.31488 19.6822 13.0024 19.6822C16.6899 19.6822 19.6804 16.6846 19.6804 13C19.6804 9.30506 16.6951 6.31787 13.0024 6.31787ZM13.0024 17.3351C10.6099 17.3351 8.66996 15.3939 8.66996 13C8.66996 10.6061 10.6099 8.66495 13.0024 8.66495C15.3948 8.66495 17.3348 10.6061 17.3348 13C17.3348 15.3939 15.3948 17.3351 13.0024 17.3351Z" fill="black"/>
<path d="M19.9408 7.61884C20.8025 7.61884 21.5011 6.91984 21.5011 6.05759C21.5011 5.19533 20.8025 4.49634 19.9408 4.49634C19.0791 4.49634 18.3805 5.19533 18.3805 6.05759C18.3805 6.91984 19.0791 7.61884 19.9408 7.61884Z" fill="black"/>
<path d="M0 13C0 16.5336 0.015603 16.976 0.0780148 18.3603C0.140427 19.7446 0.364069 20.6918 0.681329 21.5192C1.01419 22.3727 1.45628 23.1013 2.17921 23.8195C2.89695 24.5376 3.62509 24.9904 4.47805 25.3183C5.30501 25.6409 6.25159 25.8595 7.63505 25.9219C9.02371 25.9844 9.4658 26 12.9921 26C16.5235 26 16.9656 25.9844 18.3491 25.9219C19.7325 25.8595 20.6791 25.6357 21.5061 25.3183C22.359 24.9852 23.0872 24.5428 23.8049 23.8195C24.5227 23.1013 24.9751 22.3727 25.3028 21.5192C25.6253 20.6918 25.8437 19.7446 25.9061 18.3603C25.9685 16.9708 25.9841 16.5284 25.9841 13C25.9841 9.46637 25.9685 9.02402 25.9061 7.63971C25.8437 6.2554 25.6201 5.30825 25.3028 4.48079C24.9699 3.6273 24.5279 2.89872 23.8049 2.18054C23.0924 1.45717 22.3642 1.00961 21.5113 0.681745C20.6843 0.359087 19.7377 0.140512 18.3543 0.0780625C16.9656 0.0156125 16.5235 0 12.9973 0C9.4658 0 9.02371 0.0156125 7.64025 0.0780625C6.25679 0.140512 5.31021 0.364291 4.48325 0.681745C3.63029 1.01481 2.90215 1.45717 2.18441 2.18054C1.46668 2.90392 1.01419 3.6273 0.68653 4.48079C0.364069 5.30825 0.140427 6.2554 0.0780148 7.63971C0.015603 9.02402 0 9.46637 0 13ZM2.34565 13C2.34565 9.52882 2.36125 9.11249 2.42366 7.7438C2.48087 6.47398 2.69411 5.78183 2.87094 5.32906C3.10499 4.72538 3.39104 4.28823 3.84873 3.83026C4.30642 3.3723 4.7381 3.09648 5.34661 2.85188C5.8043 2.67494 6.49603 2.46157 7.75987 2.40432C9.12773 2.34187 9.53861 2.32626 13.0129 2.32626C16.4871 2.32626 16.898 2.34187 18.2659 2.40432C19.5349 2.46157 20.2266 2.67494 20.6791 2.85188C21.2824 3.08607 21.7193 3.3723 22.177 3.83026C22.6347 4.28823 22.9103 4.72018 23.1548 5.32906C23.3316 5.78703 23.5449 6.47918 23.6021 7.7438C23.6645 9.11249 23.6801 9.52362 23.6801 13C23.6801 16.4764 23.6645 16.8875 23.6021 18.2562C23.5449 19.526 23.3316 20.2182 23.1548 20.6709C22.9208 21.2746 22.6347 21.7118 22.177 22.1697C21.7193 22.6277 21.2876 22.9035 20.6791 23.1481C20.2214 23.3251 19.5297 23.5384 18.2659 23.5957C16.898 23.6581 16.4871 23.6737 13.0129 23.6737C9.53861 23.6737 9.12773 23.6581 7.75987 23.5957C6.49083 23.5384 5.7991 23.3251 5.34661 23.1481C4.7433 22.9139 4.30642 22.6277 3.84873 22.1697C3.39104 21.7118 3.11539 21.2798 2.87094 20.6709C2.69411 20.213 2.48087 19.5208 2.42366 18.2562C2.35605 16.8875 2.34565 16.4712 2.34565 13Z" fill="black"/>
</svg>
