<?xml version="1.0" encoding="utf-8"?>
<!-- Generator: Adobe Illustrator 27.6.1, SVG Export Plug-In . SVG Version: 6.00 Build 0)  -->
<svg version="1.1" id="Warstwa_1" xmlns="http://www.w3.org/2000/svg" xmlns:xlink="http://www.w3.org/1999/xlink" x="0px" y="0px"
	 viewBox="0 0 21 20" style="enable-background:new 0 0 21 20;" xml:space="preserve">
<g>
	<path d="M10.5,14c-2.1,0-3.8-1.7-3.8-3.8s1.7-3.8,3.8-3.8c2.1,0,3.8,1.7,3.8,3.8S12.6,14,10.5,14z M10.5,7.8
		c-1.3,0-2.4,1.1-2.4,2.4c0,1.3,1.1,2.4,2.4,2.4s2.4-1.1,2.4-2.4C12.9,8.9,11.8,7.8,10.5,7.8z"/>
	<path d="M10.5,18.1c-4.8,0-9-3.1-10.5-7.7c0-0.1,0-0.3,0-0.4c1.4-4.6,5.6-7.7,10.5-7.7c4.8,0,9,3.1,10.5,7.7c0,0.1,0,0.3,0,0.4
		C19.5,15,15.3,18.1,10.5,18.1z M1.5,10.2c1.3,3.9,4.9,6.5,9,6.5c4.1,0,7.7-2.6,9-6.5c-1.3-3.9-4.9-6.5-9-6.5
		C6.4,3.7,2.8,6.3,1.5,10.2z"/>
</g>
</svg>
