<svg width="39" height="40" viewBox="0 0 39 40" fill="none" xmlns="http://www.w3.org/2000/svg">
<g clip-path="url(#clip0_319_967)">
<path d="M38.0721 10.4636C37.6253 8.80427 36.317 7.49592 34.6576 7.04917C31.6261 6.21948 19.4999 6.21948 19.4999 6.21948C19.4999 6.21948 7.37368 6.21948 4.34214 7.01726C2.71468 7.46401 1.37441 8.80427 0.927658 10.4636C0.129883 13.4952 0.129883 19.7817 0.129883 19.7817C0.129883 19.7817 0.129883 26.1 0.927658 29.0997C1.37441 30.7591 2.68276 32.0674 4.34214 32.5142C7.4056 33.3438 19.4999 33.3438 19.4999 33.3438C19.4999 33.3438 31.6261 33.3438 34.6576 32.5461C36.317 32.0993 37.6253 30.791 38.0721 29.1316C38.8699 26.1 38.8699 19.8136 38.8699 19.8136C38.8699 19.8136 38.9018 13.4952 38.0721 10.4636Z" fill="#FF0000"/>
<path d="M15.6387 25.5895L25.7226 19.7817L15.6387 13.9739V25.5895Z" fill="white"/>
</g>
<defs>
<clipPath id="clip0_319_967">
<rect x="0.129883" y="0.408447" width="38.7401" height="38.7401" rx="6" fill="white"/>
</clipPath>
</defs>
</svg>
