<svg width="23" height="29" viewBox="0 0 23 29" fill="none" xmlns="http://www.w3.org/2000/svg">
<path fill-rule="evenodd" clip-rule="evenodd" d="M20.5946 10.8133C20.5946 15.8362 16.5228 19.9079 11.5 19.9079C6.47718 19.9079 2.4054 15.8362 2.4054 10.8133C2.4054 5.79054 6.47718 1.71875 11.5 1.71875C16.5228 1.71875 20.5946 5.79054 20.5946 10.8133ZM12.2432 21.3823C17.7477 21.0008 22.0946 16.4147 22.0946 10.8133C22.0946 4.96211 17.3512 0.21875 11.5 0.21875C5.64876 0.21875 0.905396 4.96211 0.905396 10.8133C0.905396 16.4101 5.24519 20.9933 10.7432 21.3813V24.4485H7.71621V25.9485H10.7432V28.2187H12.2432V25.9485H14.527V24.4485H12.2432V21.3823Z" fill="#9029E2"/>
</svg>
