<svg width="27" height="29" viewBox="0 0 27 29" fill="none" xmlns="http://www.w3.org/2000/svg">
<path fill-rule="evenodd" clip-rule="evenodd" d="M27 0.283325V1.78333V7.25107H25.5V2.65429L19.3289 8.82544C21.3778 10.8744 22.6452 13.7051 22.6452 16.8317C22.6452 23.085 17.5759 28.1543 11.3226 28.1543C5.06929 28.1543 0 23.085 0 16.8317C0 10.5784 5.06929 5.50913 11.3226 5.50913C13.9084 5.50913 16.2918 6.37598 18.198 7.83493L24.2496 1.78333L20.0323 1.78333V0.283325H25.5H27ZM11.3226 26.6543C16.7474 26.6543 21.1452 22.2566 21.1452 16.8317C21.1452 11.4069 16.7474 7.00913 11.3226 7.00913C5.89772 7.00913 1.5 11.4069 1.5 16.8317C1.5 22.2566 5.89772 26.6543 11.3226 26.6543Z" fill="#9029E2"/>
</svg>
