<svg width="30" height="26" viewBox="0 0 30 26" fill="none" xmlns="http://www.w3.org/2000/svg">
<path d="M26.9171 6.47394C26.9293 6.75994 26.9293 7.03294 26.9293 7.31894C26.9415 15.99 20.7514 26 9.43136 26C6.09261 26 2.81478 24.973 0 23.049C0.487409 23.114 0.974817 23.14 1.46223 23.14C4.22827 23.14 6.9212 22.152 9.10236 20.319C6.47035 20.267 4.15516 18.434 3.35093 15.756C4.27701 15.951 5.22746 15.912 6.12916 15.639C3.26564 15.041 1.20634 12.35 1.19415 9.21695C1.19415 9.19095 1.19415 9.16495 1.19415 9.13895C2.04712 9.64595 3.00975 9.93195 3.98457 9.95795C1.29163 8.03394 0.450853 4.19893 2.08367 1.19592C5.21527 5.30393 9.82128 7.78694 14.7685 8.05994C14.2689 5.78493 14.9513 3.39293 16.5475 1.78092C19.0211 -0.702086 22.9204 -0.572085 25.26 2.06692C26.6369 1.78092 27.9651 1.23492 29.1714 0.467918C28.7084 1.98892 27.7457 3.27593 26.4663 4.09493C27.6848 3.93893 28.879 3.58793 30 3.06793C29.1714 4.39393 28.1235 5.53793 26.9171 6.47394Z" fill="black"/>
</svg>
