<svg width="46" height="46" viewBox="0 0 46 46" fill="none" xmlns="http://www.w3.org/2000/svg">
<g clip-path="url(#clip0_629_797)">
<path d="M23 46C35.7025 46 46 35.7025 46 23C46 10.2975 35.7025 0 23 0C10.2975 0 0 10.2975 0 23C0 35.7025 10.2975 46 23 46Z" fill="#F0F0F0"/>
<path d="M22 23H46C46 20.9241 45.7232 18.913 45.2076 17H22V23Z" fill="#D80027"/>
<path d="M22 11H42.6242C41.2162 8.70255 39.416 6.67181 37.3171 5H22V11Z" fill="#D80027"/>
<path d="M23 46C28.413 46 33.3883 44.1291 37.3171 41H8.68286C12.6117 44.1291 17.587 46 23 46Z" fill="#D80027"/>
<path d="M3.37569 35H42.6241C43.7544 33.1556 44.631 31.1395 45.2076 29H0.792236C1.36876 31.1395 2.24537 33.1556 3.37569 35Z" fill="#D80027"/>
<path d="M10.654 3.59177H12.75L10.8004 5.00816L11.5451 7.29998L9.59558 5.8836L7.64606 7.29998L8.28934 5.3201C6.57279 6.74996 5.06827 8.42519 3.82842 10.2918H4.5L3.25899 11.1934C3.06565 11.5159 2.88021 11.8436 2.7025 12.1761L3.29511 14L2.18949 13.1967C1.91466 13.779 1.66328 14.3744 1.43732 14.9822L2.09021 16.9918H4.5L2.55039 18.4082L3.29511 20.7L1.34559 19.2836L0.177801 20.1321C0.0609141 21.0717 0 22.0287 0 23H23C23 10.2975 23 8.80002 23 0C18.4564 0 14.2209 1.31801 10.654 3.59177ZM11.5451 20.7L9.59558 19.2836L7.64606 20.7L8.39078 18.4082L6.44117 16.9918H8.85096L9.59558 14.7L10.3402 16.9918H12.75L10.8004 18.4082L11.5451 20.7ZM10.8004 11.7082L11.5451 14L9.59558 12.5836L7.64606 14L8.39078 11.7082L6.44117 10.2918H8.85096L9.59558 7.99996L10.3402 10.2918H12.75L10.8004 11.7082ZM19.7951 20.7L17.8456 19.2836L15.8961 20.7L16.6408 18.4082L14.6912 16.9918H17.101L17.8456 14.7L18.5902 16.9918H21L19.0504 18.4082L19.7951 20.7ZM19.0504 11.7082L19.7951 14L17.8456 12.5836L15.8961 14L16.6408 11.7082L14.6912 10.2918H17.101L17.8456 7.99996L18.5902 10.2918H21L19.0504 11.7082ZM19.0504 5.00816L19.7951 7.29998L17.8456 5.8836L15.8961 7.29998L16.6408 5.00816L14.6912 3.59177H17.101L17.8456 1.29995L18.5902 3.59177H21L19.0504 5.00816Z" fill="#0052B4"/>
</g>
<defs>
<clipPath id="clip0_629_797">
<rect width="46" height="46" fill="white"/>
</clipPath>
</defs>
</svg>
