<svg width="21" height="22" viewBox="0 0 21 22" fill="none" xmlns="http://www.w3.org/2000/svg">
<g clip-path="url(#clip0_248_1378)">
<path d="M0.653092 7.34784C0.231041 8.48537 0 9.71564 0 11C0 12.2844 0.231041 13.5147 0.653092 14.6522L10.5 15.5652L20.3469 14.6522C20.769 13.5147 21 12.2844 21 11C21 9.71564 20.769 8.48537 20.3469 7.34784L10.5 6.4348L0.653092 7.34784Z" fill="#F0F0F0"/>
<path d="M10.5 0.5C5.98541 0.5 2.13667 3.34944 0.653137 7.34785H20.347C18.8633 3.34944 15.0147 0.5 10.5 0.5Z" fill="#D80027"/>
<path d="M10.5 21.5C15.0147 21.5 18.8633 18.6506 20.347 14.6522H0.653137C2.13667 18.6506 5.98541 21.5 10.5 21.5Z" fill="#6DA544"/>
</g>
<defs>
<clipPath id="clip0_248_1378">
<rect width="21" height="21" fill="white" transform="translate(0 0.5)"/>
</clipPath>
</defs>
</svg>
