<svg width="46" height="46" viewBox="0 0 46 46" fill="none" xmlns="http://www.w3.org/2000/svg">
<g clip-path="url(#clip0_629_800)">
<path d="M23 46C35.7025 46 46 35.7025 46 23C46 10.2975 35.7025 0 23 0C10.2975 0 0 10.2975 0 23C0 35.7025 10.2975 46 23 46Z" fill="#F0F0F0"/>
<path d="M23 0C13.8814 0 6.00248 5.30662 2.28223 13H43.7177C39.9976 5.30662 32.1185 0 23 0Z" fill="#FF9811"/>
<path d="M23 46C32.1185 46 39.9976 40.6934 43.7178 33H2.28223C6.00248 40.6934 13.8814 46 23 46Z" fill="#6DA544"/>
<path d="M23 30.9999C27.4182 30.9999 30.9999 27.4182 30.9999 23C30.9999 18.5817 27.4182 15 23 15C18.5817 15 15 18.5817 15 23C15 27.4182 18.5817 30.9999 23 30.9999Z" fill="#0052B4"/>
<path d="M23 28C25.7614 28 28 25.7614 28 23C28 20.2386 25.7614 18 23 18C20.2386 18 18 20.2386 18 23C18 25.7614 20.2386 28 23 28Z" fill="#F0F0F0"/>
<path d="M23 16.8301L24.5425 20.3284L28.3433 19.915L26.085 23L28.3433 26.085L24.5425 25.6716L23 29.1699L21.4575 25.6716L17.6567 26.0849L19.9151 23L17.6567 19.915L21.4575 20.3284L23 16.8301Z" fill="#0052B4"/>
</g>
<defs>
<clipPath id="clip0_629_800">
<rect width="46" height="46" fill="white"/>
</clipPath>
</defs>
</svg>
