<svg width="22" height="22" viewBox="0 0 22 22" fill="none" xmlns="http://www.w3.org/2000/svg">
<g clip-path="url(#clip0_248_1353)">
<path d="M11 21.5C16.799 21.5 21.5 16.799 21.5 11C21.5 5.20101 16.799 0.5 11 0.5C5.20101 0.5 0.5 5.20101 0.5 11C0.5 16.799 5.20101 21.5 11 21.5Z" fill="#F0F0F0"/>
<path d="M21.5 11C21.5 6.48537 18.6506 2.63667 14.6522 1.15309V20.8469C18.6506 19.3633 21.5 15.5146 21.5 11Z" fill="#D80027"/>
<path d="M0.5 11C0.5 15.5146 3.34944 19.3633 7.34785 20.8469V1.15309C3.34944 2.63667 0.5 6.48537 0.5 11Z" fill="#6DA544"/>
</g>
<defs>
<clipPath id="clip0_248_1353">
<rect width="21" height="21" fill="white" transform="translate(0.5 0.5)"/>
</clipPath>
</defs>
</svg>
