<svg width="21" height="22" viewBox="0 0 21 22" fill="none" xmlns="http://www.w3.org/2000/svg">
<g clip-path="url(#clip0_248_1388)">
<path d="M10.5 21.5C16.299 21.5 21 16.799 21 11C21 5.20101 16.299 0.5 10.5 0.5C4.70101 0.5 0 5.20101 0 11C0 16.799 4.70101 21.5 10.5 21.5Z" fill="#FFDA44"/>
<path d="M8.21742 9.63045H20.9111C20.24 4.4786 15.8348 0.5 10.5 0.5C9.71601 0.5 8.95234 0.586666 8.21738 0.74958V9.63045H8.21742Z" fill="#0052B4"/>
<path d="M5.47824 9.63041V1.7767C2.59509 3.34981 0.531139 6.2353 0.0888672 9.63045H5.47824V9.63041Z" fill="#0052B4"/>
<path d="M5.4782 12.3696H0.0888672C0.531139 15.7647 2.59509 18.6502 5.47824 20.2233L5.4782 12.3696Z" fill="#0052B4"/>
<path d="M8.21738 12.3696V21.2504C8.95234 21.4133 9.71601 21.5 10.5 21.5C15.8348 21.5 20.24 17.5214 20.9111 12.3696H8.21738V12.3696Z" fill="#0052B4"/>
</g>
<defs>
<clipPath id="clip0_248_1388">
<rect width="21" height="21" fill="white" transform="translate(0 0.5)"/>
</clipPath>
</defs>
</svg>
